<?xml version="1.0" encoding="UTF-8" standalone="no"?>
<!DOCTYPE svg PUBLIC "-//W3C//DTD SVG 1.1//EN" "http://www.w3.org/Graphics/SVG/1.1/DTD/svg11.dtd">
<svg xmlns="http://www.w3.org/2000/svg" xmlns:xlink="http://www.w3.org/1999/xlink" viewBox="0.216490066225166 -2.59278145695364 0.425298013245033 0.417350993377482" enable-background="new" shape-rendering="auto">
<defs>
<filter id="T">
  <feBlend mode="normal" in2="BackgroundImage" in="SourceGraphic"/>
</filter>
</defs>
<g>
<title>genatuben</title>
<style type="text/css"><![CDATA[.C1{fill:#ffffff;stroke:#ff0000;stroke-width:0.000500000000000;stroke-antialiasing:true;stroke-linecap:square;stroke-linejoin:miter}]]></style>
<path class="C1" d="M0.2265 -2.3841C0.2265,-2.2748 0.3177,-2.1854 0.4291,-2.1854C0.5406,-2.1854 0.6318,-2.2748 0.6318,-2.3841C0.6318,-2.4934 0.5406,-2.5828 0.4291,-2.5828C0.3177,-2.5828 0.2265,-2.4934 0.2265,-2.3841z" />
<style type="text/css"><![CDATA[.C2{fill:none;stroke:#ff0000;stroke-width:0.001000000000000;stroke-antialiasing:true;stroke-linecap:round;stroke-linejoin:round}]]></style>
<path class="C2" d="M0.3654 -2.2466L0.3646 -2.5180L0.4390 -2.5186C0.5875,-2.4863 0.6109,-2.2989 0.4472,-2.2464L0.4472 -2.2464L0.3654 -2.2466z" />
<defs>
<g id="L1">
<style type="text/css"><![CDATA[.C3{fill:#ff0000;stroke:none}]]></style>
<path class="C3" d="M0.5149 -2.5750L0.5147 -2.5751L0.5086 -2.5776L0.5084 -2.5777L0.5054 -2.5789L0.5051 -2.5790L0.4989 -2.5812L0.4987 -2.5813L0.4956 -2.5823L0.4953 -2.5824L0.4890 -2.5843L0.4888 -2.5844L0.4856 -2.5853L0.4853 -2.5854L0.4789 -2.5870L0.4786 -2.5871L0.4754 -2.5878L0.4751 -2.5879L0.4685 -2.5892L0.4683 -2.5892L0.4650 -2.5898L0.4647 -2.5899L0.4580 -2.5909L0.4578 -2.5909L0.4544 -2.5913L0.4542 -2.5914L0.4474 -2.5920L0.4471 -2.5921L0.4437 -2.5923L0.4435 -2.5923L0.4366 -2.5927L0.4363 -2.5927L0.4329 -2.5928L0.4326 -2.5928L0.4257 -2.5928L0.4254 -2.5928L0.4219 -2.5927L0.4217 -2.5927L0.4148 -2.5923L0.4146 -2.5923L0.4111 -2.5921L0.4109 -2.5920L0.4041 -2.5914L0.4039 -2.5913L0.4005 -2.5909L0.4002 -2.5909L0.3935 -2.5899L0.3933 -2.5898L0.3900 -2.5892L0.3897 -2.5892L0.3832 -2.5879L0.3829 -2.5878L0.3797 -2.5871L0.3794 -2.5870L0.3730 -2.5854L0.3727 -2.5853L0.3695 -2.5844L0.3693 -2.5843L0.3630 -2.5824L0.3627 -2.5823L0.3596 -2.5813L0.3594 -2.5812L0.3532 -2.5790L0.3529 -2.5789L0.3499 -2.5777L0.3496 -2.5776L0.3436 -2.5751L0.3434 -2.5750L0.3404 -2.5736L0.3402 -2.5735L0.3342 -2.5707L0.3340 -2.5706L0.3311 -2.5692L0.3309 -2.5691L0.3223 -2.5645L0.3219 -2.5642L0.3163 -2.5609L0.3159 -2.5606L0.3051 -2.5535L0.3047 -2.5532L0.2995 -2.5494L0.2991 -2.5491L0.2891 -2.5410L0.2888 -2.5407L0.2840 -2.5364L0.2836 -2.5361L0.2744 -2.5271L0.2741 -2.5267L0.2697 -2.5220L0.2694 -2.5216L0.2611 -2.5118L0.2608 -2.5115L0.2569 -2.5063L0.2566 -2.5060L0.2512 -2.4980L0.2510 -2.4978L0.2493 -2.4951L0.2491 -2.4949L0.2457 -2.4895L0.2456 -2.4893L0.2440 -2.4865L0.2439 -2.4863L0.2407 -2.4806L0.2406 -2.4804L0.2391 -2.4776L0.2390 -2.4774L0.2362 -2.4716L0.2361 -2.4714L0.2347 -2.4684L0.2346 -2.4682L0.2320 -2.4623L0.2319 -2.4620L0.2307 -2.4590L0.2306 -2.4588L0.2283 -2.4527L0.2283 -2.4525L0.2272 -2.4494L0.2271 -2.4492L0.2251 -2.4430L0.2250 -2.4427L0.2241 -2.4396L0.2241 -2.4393L0.2224 -2.4330L0.2223 -2.4327L0.2216 -2.4295L0.2215 -2.4293L0.2202 -2.4228L0.2201 -2.4226L0.2195 -2.4193L0.2195 -2.4191L0.2184 -2.4125L0.2184 -2.4123L0.2180 -2.4090L0.2179 -2.4087L0.2172 -2.4021L0.2172 -2.4018L0.2170 -2.3984L0.2169 -2.3982L0.2166 -2.3914L0.2166 -2.3912L0.2165 -2.3878L0.2165 -2.3875L0.2165 -2.3807L0.2165 -2.3804L0.2166 -2.3770L0.2166 -2.3768L0.2169 -2.3700L0.2170 -2.3698L0.2172 -2.3664L0.2172 -2.3662L0.2179 -2.3595L0.2180 -2.3592L0.2184 -2.3559L0.2184 -2.3557L0.2195 -2.3491L0.2195 -2.3489L0.2201 -2.3456L0.2202 -2.3454L0.2215 -2.3389L0.2216 -2.3387L0.2223 -2.3355L0.2224 -2.3352L0.2241 -2.3289L0.2241 -2.3286L0.2250 -2.3255L0.2251 -2.3253L0.2271 -2.3190L0.2272 -2.3188L0.2283 -2.3157L0.2283 -2.3155L0.2306 -2.3094L0.2307 -2.3092L0.2319 -2.3062L0.2320 -2.3060L0.2346 -2.3000L0.2347 -2.2998L0.2361 -2.2969L0.2362 -2.2966L0.2390 -2.2909L0.2391 -2.2906L0.2406 -2.2878L0.2407 -2.2876L0.2439 -2.2819L0.2440 -2.2817L0.2456 -2.2789L0.2457 -2.2787L0.2491 -2.2733L0.2493 -2.2731L0.2510 -2.2704L0.2512 -2.2702L0.2566 -2.2623L0.2569 -2.2619L0.2608 -2.2568L0.2611 -2.2564L0.2694 -2.2466L0.2697 -2.2462L0.2741 -2.2415L0.2744 -2.2412L0.2836 -2.2321L0.2840 -2.2318L0.2888 -2.2275L0.2891 -2.2272L0.2991 -2.2191L0.2995 -2.2188L0.3047 -2.2150L0.3051 -2.2147L0.3159 -2.2076L0.3163 -2.2073L0.3219 -2.2040L0.3223 -2.2037L0.3309 -2.1991L0.3311 -2.1990L0.3340 -2.1976L0.3342 -2.1975L0.3402 -2.1947L0.3404 -2.1946L0.3434 -2.1932L0.3436 -2.1931L0.3496 -2.1906L0.3499 -2.1905L0.3529 -2.1893L0.3532 -2.1892L0.3594 -2.1870L0.3596 -2.1869L0.3627 -2.1859L0.3630 -2.1858L0.3693 -2.1839L0.3695 -2.1838L0.3727 -2.1829L0.3730 -2.1828L0.3794 -2.1812L0.3797 -2.1811L0.3829 -2.1804L0.3832 -2.1803L0.3897 -2.1790L0.3900 -2.1790L0.3933 -2.1784L0.3935 -2.1783L0.4002 -2.1773L0.4005 -2.1773L0.4039 -2.1769L0.4041 -2.1769L0.4109 -2.1762L0.4111 -2.1761L0.4146 -2.1759L0.4148 -2.1759L0.4217 -2.1755L0.4219 -2.1755L0.4254 -2.1754L0.4257 -2.1754L0.4326 -2.1754L0.4329 -2.1754L0.4363 -2.1755L0.4366 -2.1755L0.4435 -2.1759L0.4437 -2.1759L0.4471 -2.1761L0.4474 -2.1762L0.4542 -2.1769L0.4544 -2.1769L0.4578 -2.1773L0.4580 -2.1773L0.4647 -2.1783L0.4650 -2.1784L0.4683 -2.1790L0.4685 -2.1790L0.4751 -2.1803L0.4754 -2.1804L0.4786 -2.1811L0.4789 -2.1812L0.4853 -2.1828L0.4856 -2.1829L0.4888 -2.1838L0.4890 -2.1839L0.4953 -2.1858L0.4956 -2.1859L0.4987 -2.1869L0.4989 -2.1870L0.5051 -2.1892L0.5054 -2.1893L0.5084 -2.1905L0.5086 -2.1906L0.5147 -2.1931L0.5149 -2.1932L0.5179 -2.1946L0.5181 -2.1947L0.5240 -2.1975L0.5242 -2.1976L0.5272 -2.1990L0.5274 -2.1991L0.5360 -2.2037L0.5364 -2.2040L0.5420 -2.2073L0.5424 -2.2076L0.5532 -2.2147L0.5536 -2.2150L0.5588 -2.2188L0.5591 -2.2191L0.5692 -2.2272L0.5695 -2.2275L0.5743 -2.2318L0.5747 -2.2321L0.5839 -2.2412L0.5842 -2.2415L0.5886 -2.2462L0.5889 -2.2466L0.5971 -2.2564L0.5974 -2.2568L0.6014 -2.2619L0.6016 -2.2623L0.6071 -2.2702L0.6072 -2.2704L0.6090 -2.2731L0.6091 -2.2733L0.6125 -2.2787L0.6127 -2.2789L0.6143 -2.2817L0.6144 -2.2819L0.6175 -2.2876L0.6177 -2.2878L0.6192 -2.2906L0.6193 -2.2909L0.6221 -2.2966L0.6222 -2.2969L0.6236 -2.2998L0.6237 -2.3000L0.6263 -2.3060L0.6264 -2.3062L0.6276 -2.3092L0.6277 -2.3094L0.6299 -2.3155L0.6300 -2.3157L0.6311 -2.3188L0.6312 -2.3190L0.6332 -2.3253L0.6332 -2.3255L0.6341 -2.3286L0.6342 -2.3289L0.6359 -2.3352L0.6359 -2.3355L0.6367 -2.3387L0.6368 -2.3389L0.6381 -2.3454L0.6382 -2.3456L0.6388 -2.3489L0.6388 -2.3491L0.6398 -2.3557L0.6399 -2.3559L0.6403 -2.3592L0.6403 -2.3595L0.6410 -2.3662L0.6411 -2.3664L0.6413 -2.3698L0.6413 -2.3700L0.6417 -2.3768L0.6417 -2.3770L0.6418 -2.3804L0.6418 -2.3807L0.6418 -2.3875L0.6418 -2.3878L0.6417 -2.3912L0.6417 -2.3914L0.6413 -2.3982L0.6413 -2.3984L0.6411 -2.4018L0.6410 -2.4021L0.6403 -2.4087L0.6403 -2.4090L0.6399 -2.4123L0.6398 -2.4125L0.6388 -2.4191L0.6388 -2.4193L0.6382 -2.4226L0.6381 -2.4228L0.6368 -2.4293L0.6367 -2.4295L0.6359 -2.4327L0.6359 -2.4330L0.6342 -2.4393L0.6341 -2.4396L0.6332 -2.4427L0.6332 -2.4430L0.6312 -2.4492L0.6311 -2.4494L0.6300 -2.4525L0.6299 -2.4527L0.6277 -2.4588L0.6276 -2.4590L0.6264 -2.4620L0.6263 -2.4623L0.6237 -2.4682L0.6236 -2.4684L0.6222 -2.4714L0.6221 -2.4716L0.6193 -2.4774L0.6192 -2.4776L0.6177 -2.4804L0.6175 -2.4806L0.6144 -2.4863L0.6143 -2.4865L0.6127 -2.4893L0.6125 -2.4895L0.6091 -2.4949L0.6090 -2.4951L0.6072 -2.4978L0.6071 -2.4980L0.6016 -2.5060L0.6014 -2.5063L0.5974 -2.5115L0.5971 -2.5118L0.5889 -2.5216L0.5886 -2.5220L0.5842 -2.5267L0.5839 -2.5271L0.5747 -2.5361L0.5743 -2.5364L0.5695 -2.5407L0.5692 -2.5410L0.5591 -2.5491L0.5588 -2.5494L0.5536 -2.5532L0.5532 -2.5535L0.5424 -2.5606L0.5420 -2.5609L0.5364 -2.5642L0.5360 -2.5645L0.5274 -2.5691L0.5272 -2.5692L0.5242 -2.5706L0.5240 -2.5707L0.5181 -2.5735L0.5179 -2.5736L0.5149 -2.5750zM0.6218 -2.3874L0.6218 -2.3808L0.6217 -2.3777L0.6214 -2.3712L0.6211 -2.3681L0.6205 -2.3617L0.6201 -2.3587L0.6191 -2.3524L0.6185 -2.3494L0.6172 -2.3432L0.6165 -2.3402L0.6149 -2.3341L0.6141 -2.3312L0.6122 -2.3252L0.6112 -2.3224L0.6090 -2.3166L0.6079 -2.3138L0.6054 -2.3081L0.6041 -2.3054L0.6014 -2.2998L0.6000 -2.2972L0.5970 -2.2918L0.5955 -2.2892L0.5922 -2.2839L0.5906 -2.2815L0.5853 -2.2738L0.5817 -2.2691L0.5737 -2.2596L0.5697 -2.2553L0.5608 -2.2466L0.5564 -2.2426L0.5467 -2.2348L0.5419 -2.2313L0.5315 -2.2244L0.5263 -2.2213L0.5181 -2.2168L0.5154 -2.2155L0.5097 -2.2128L0.5069 -2.2116L0.5011 -2.2091L0.4982 -2.2080L0.4923 -2.2059L0.4893 -2.2049L0.4832 -2.2030L0.4803 -2.2022L0.4741 -2.2006L0.4710 -2.1999L0.4647 -2.1986L0.4616 -2.1981L0.4552 -2.1971L0.4521 -2.1967L0.4455 -2.1961L0.4423 -2.1958L0.4357 -2.1955L0.4325 -2.1954L0.4258 -2.1954L0.4226 -2.1955L0.4159 -2.1958L0.4128 -2.1961L0.4062 -2.1967L0.4031 -2.1971L0.3967 -2.1981L0.3936 -2.1986L0.3872 -2.1999L0.3842 -2.2006L0.3780 -2.2022L0.3750 -2.2030L0.3689 -2.2049L0.3660 -2.2059L0.3601 -2.2080L0.3572 -2.2091L0.3514 -2.2116L0.3486 -2.2128L0.3429 -2.2155L0.3402 -2.2168L0.3319 -2.2213L0.3268 -2.2244L0.3164 -2.2313L0.3115 -2.2348L0.3019 -2.2426L0.2974 -2.2466L0.2886 -2.2553L0.2845 -2.2596L0.2766 -2.2691L0.2730 -2.2738L0.2677 -2.2815L0.2661 -2.2839L0.2628 -2.2892L0.2613 -2.2918L0.2583 -2.2972L0.2569 -2.2998L0.2541 -2.3054L0.2529 -2.3081L0.2504 -2.3138L0.2493 -2.3166L0.2471 -2.3224L0.2461 -2.3252L0.2442 -2.3312L0.2434 -2.3341L0.2418 -2.3402L0.2411 -2.3432L0.2398 -2.3494L0.2392 -2.3524L0.2382 -2.3587L0.2378 -2.3617L0.2372 -2.3681L0.2369 -2.3712L0.2366 -2.3777L0.2365 -2.3808L0.2365 -2.3874L0.2366 -2.3905L0.2369 -2.3970L0.2372 -2.4001L0.2378 -2.4065L0.2382 -2.4096L0.2392 -2.4159L0.2398 -2.4189L0.2411 -2.4251L0.2418 -2.4280L0.2434 -2.4341L0.2442 -2.4370L0.2461 -2.4430L0.2471 -2.4458L0.2493 -2.4516L0.2504 -2.4544L0.2529 -2.4601L0.2541 -2.4628L0.2569 -2.4684L0.2583 -2.4710L0.2613 -2.4765L0.2628 -2.4790L0.2661 -2.4843L0.2677 -2.4868L0.2730 -2.4944L0.2766 -2.4991L0.2845 -2.5086L0.2886 -2.5129L0.2974 -2.5216L0.3019 -2.5256L0.3115 -2.5334L0.3164 -2.5370L0.3268 -2.5438L0.3319 -2.5469L0.3402 -2.5514L0.3429 -2.5527L0.3486 -2.5554L0.3514 -2.5567L0.3572 -2.5591L0.3601 -2.5602L0.3660 -2.5623L0.3689 -2.5633L0.3750 -2.5652L0.3780 -2.5660L0.3842 -2.5676L0.3872 -2.5683L0.3936 -2.5696L0.3967 -2.5701L0.4031 -2.5711L0.4062 -2.5715L0.4128 -2.5721L0.4159 -2.5724L0.4226 -2.5727L0.4258 -2.5728L0.4325 -2.5728L0.4357 -2.5727L0.4423 -2.5724L0.4455 -2.5721L0.4521 -2.5715L0.4552 -2.5711L0.4616 -2.5701L0.4647 -2.5696L0.4710 -2.5683L0.4741 -2.5676L0.4803 -2.5660L0.4832 -2.5652L0.4893 -2.5633L0.4923 -2.5623L0.4982 -2.5602L0.5011 -2.5591L0.5069 -2.5567L0.5097 -2.5554L0.5154 -2.5527L0.5181 -2.5514L0.5263 -2.5469L0.5315 -2.5438L0.5419 -2.5370L0.5467 -2.5334L0.5564 -2.5256L0.5608 -2.5216L0.5697 -2.5129L0.5737 -2.5086L0.5817 -2.4991L0.5853 -2.4944L0.5906 -2.4868L0.5922 -2.4843L0.5955 -2.4790L0.5970 -2.4765L0.6000 -2.4710L0.6014 -2.4684L0.6041 -2.4628L0.6054 -2.4601L0.6079 -2.4544L0.6090 -2.4516L0.6112 -2.4458L0.6122 -2.4430L0.6141 -2.4370L0.6149 -2.4341L0.6165 -2.4280L0.6172 -2.4251L0.6185 -2.4189L0.6191 -2.4159L0.6201 -2.4096L0.6205 -2.4065L0.6211 -2.4001L0.6214 -2.3970L0.6217 -2.3905L0.6218 -2.3874z" fill="param(fill)" fill-opacity="param(fill-opacity)" stroke="param(outline)" stroke-opacity="param(outline-opacity)" stroke-width="param(outline-width)"/>
</g>
<g id="L2">
<path class="C3" d="M0.4410 -2.5384L0.4393 -2.5386L0.4391 -2.5386L0.4388 -2.5386L0.3644 -2.5380L0.3605 -2.5376L0.3568 -2.5364L0.3534 -2.5346L0.3504 -2.5321L0.3479 -2.5290L0.3461 -2.5256L0.3450 -2.5218L0.3446 -2.5179L0.3454 -2.2465L0.3456 -2.2446L0.3458 -2.2427L0.3458 -2.2427L0.3458 -2.2426L0.3464 -2.2408L0.3469 -2.2390L0.3469 -2.2389L0.3470 -2.2389L0.3479 -2.2372L0.3488 -2.2355L0.3488 -2.2355L0.3488 -2.2354L0.3500 -2.2340L0.3512 -2.2325L0.3513 -2.2325L0.3513 -2.2324L0.3528 -2.2312L0.3543 -2.2300L0.3543 -2.2300L0.3543 -2.2299L0.3560 -2.2290L0.3577 -2.2281L0.3578 -2.2281L0.3578 -2.2281L0.3596 -2.2276L0.3615 -2.2270L0.3615 -2.2270L0.3616 -2.2270L0.3635 -2.2268L0.3654 -2.2266L0.4471 -2.2264L0.4483 -2.2265L0.4494 -2.2266L0.4502 -2.2267L0.4510 -2.2268L0.4521 -2.2271L0.4533 -2.2274L0.4584 -2.2290L0.4590 -2.2292L0.4640 -2.2310L0.4646 -2.2313L0.4741 -2.2350L0.4748 -2.2353L0.4794 -2.2373L0.4800 -2.2376L0.4888 -2.2419L0.4895 -2.2422L0.4937 -2.2445L0.4943 -2.2449L0.5024 -2.2496L0.5031 -2.2500L0.5070 -2.2524L0.5076 -2.2529L0.5150 -2.2580L0.5156 -2.2584L0.5191 -2.2611L0.5198 -2.2616L0.5265 -2.2671L0.5271 -2.2676L0.5303 -2.2704L0.5309 -2.2710L0.5368 -2.2768L0.5374 -2.2774L0.5403 -2.2804L0.5408 -2.2810L0.5461 -2.2871L0.5467 -2.2878L0.5492 -2.2909L0.5497 -2.2916L0.5543 -2.2980L0.5548 -2.2987L0.5570 -2.3019L0.5574 -2.3027L0.5614 -2.3092L0.5618 -2.3100L0.5637 -2.3134L0.5641 -2.3141L0.5674 -2.3209L0.5677 -2.3217L0.5692 -2.3252L0.5695 -2.3260L0.5722 -2.3329L0.5725 -2.3337L0.5737 -2.3372L0.5739 -2.3381L0.5759 -2.3451L0.5761 -2.3460L0.5770 -2.3495L0.5772 -2.3504L0.5785 -2.3575L0.5787 -2.3584L0.5792 -2.3620L0.5793 -2.3628L0.5804 -2.3736L0.5805 -2.3753L0.5807 -2.3826L0.5806 -2.3843L0.5796 -2.3986L0.5794 -2.4003L0.5783 -2.4074L0.5780 -2.4091L0.5746 -2.4232L0.5742 -2.4247L0.5719 -2.4317L0.5713 -2.4332L0.5655 -2.4467L0.5648 -2.4482L0.5614 -2.4547L0.5606 -2.4562L0.5525 -2.4688L0.5516 -2.4701L0.5470 -2.4762L0.5460 -2.4774L0.5383 -2.4860L0.5377 -2.4866L0.5350 -2.4894L0.5345 -2.4900L0.5288 -2.4954L0.5282 -2.4959L0.5252 -2.4985L0.5246 -2.4990L0.5184 -2.5041L0.5177 -2.5045L0.5145 -2.5069L0.5139 -2.5074L0.5071 -2.5120L0.5064 -2.5125L0.5029 -2.5146L0.5023 -2.5151L0.4950 -2.5192L0.4943 -2.5196L0.4905 -2.5216L0.4898 -2.5219L0.4820 -2.5256L0.4813 -2.5259L0.4773 -2.5276L0.4766 -2.5279L0.4683 -2.5311L0.4676 -2.5313L0.4633 -2.5328L0.4626 -2.5330L0.4538 -2.5356L0.4531 -2.5358L0.4486 -2.5370L0.4479 -2.5371L0.4432 -2.5381L0.4430 -2.5382L0.4427 -2.5382L0.4410 -2.5384zM0.3853 -2.2666L0.3847 -2.4982L0.4369 -2.4986L0.4390 -2.4981L0.4428 -2.4971L0.4509 -2.4948L0.4544 -2.4936L0.4620 -2.4907L0.4653 -2.4893L0.4724 -2.4859L0.4755 -2.4843L0.4820 -2.4805L0.4849 -2.4788L0.4910 -2.4746L0.4936 -2.4727L0.4992 -2.4682L0.5015 -2.4661L0.5066 -2.4613L0.5087 -2.4590L0.5156 -2.4514L0.5192 -2.4466L0.5264 -2.4354L0.5291 -2.4303L0.5342 -2.4183L0.5359 -2.4130L0.5389 -2.4005L0.5398 -2.3950L0.5407 -2.3824L0.5406 -2.3769L0.5396 -2.3674L0.5392 -2.3646L0.5380 -2.3584L0.5373 -2.3557L0.5356 -2.3494L0.5347 -2.3468L0.5323 -2.3407L0.5312 -2.3380L0.5283 -2.3321L0.5269 -2.3295L0.5234 -2.3236L0.5217 -2.3211L0.5176 -2.3155L0.5157 -2.3130L0.5109 -2.3076L0.5087 -2.3052L0.5033 -2.3000L0.5008 -2.2977L0.4947 -2.2928L0.4919 -2.2906L0.4851 -2.2860L0.4820 -2.2839L0.4745 -2.2796L0.4710 -2.2777L0.4629 -2.2738L0.4590 -2.2721L0.4501 -2.2685L0.4458 -2.2670L0.4440 -2.2664L0.3853 -2.2666z" fill="param(fill)" fill-opacity="param(fill-opacity)" stroke="param(outline)" stroke-opacity="param(outline-opacity)" stroke-width="param(outline-width)"/>
</g>
</defs>
</g>
<use xlink:href="#L1"/>
<use xlink:href="#L2"/>
</svg>
