<?xml version="1.0" encoding="UTF-8" standalone="no"?>
<!-- Created with Inkscape (http://www.inkscape.org/) -->

<svg
   width="180"
   height="180"
   viewBox="0 0 180 180"
   version="1.1"
   id="svg1"
   sodipodi:docname="仕切弁_弁.svg"
   inkscape:version="1.3 (0e150ed6c4, 2023-07-21)"
   xmlns:inkscape="http://www.inkscape.org/namespaces/inkscape"
   xmlns:sodipodi="http://sodipodi.sourceforge.net/DTD/sodipodi-0.dtd"
   xmlns="http://www.w3.org/2000/svg"
   xmlns:svg="http://www.w3.org/2000/svg">
  <sodipodi:namedview
     id="namedview1"
     pagecolor="#ffffff"
     bordercolor="#000000"
     borderopacity="0.25"
     inkscape:showpageshadow="2"
     inkscape:pageopacity="0.0"
     inkscape:pagecheckerboard="0"
     inkscape:deskcolor="#d1d1d1"
     inkscape:document-units="px"
     inkscape:zoom="6.2944444"
     inkscape:cx="90"
     inkscape:cy="90"
     inkscape:window-width="2256"
     inkscape:window-height="1410"
     inkscape:window-x="-11"
     inkscape:window-y="-11"
     inkscape:window-maximized="1"
     inkscape:current-layer="layer1" />
  <defs
     id="defs1" />
  <g
     inkscape:label="Layer 1"
     inkscape:groupmode="layer"
     id="layer1">
    <path
       id="path2"
       style="fill:#ff00fb;stroke:#ffffff;stroke-width:0;stroke-linejoin:round;stroke-miterlimit:12.2"
       d="M 90 5 A 85 85 0 0 0 5 90 A 85 85 0 0 0 90 175 A 85 85 0 0 0 175 90 A 85 85 0 0 0 90 5 z M 90 22.5 A 67.5 67.5 0 0 1 93.3125 22.582031 A 67.5 67.5 0 0 1 96.615234 22.824219 A 67.5 67.5 0 0 1 99.904297 23.230469 A 67.5 67.5 0 0 1 103.16797 23.796875 A 67.5 67.5 0 0 1 106.40039 24.523438 A 67.5 67.5 0 0 1 109.59375 25.40625 A 67.5 67.5 0 0 1 112.74023 26.445312 A 67.5 67.5 0 0 1 115.83203 27.638672 A 67.5 67.5 0 0 1 118.85938 28.980469 A 67.5 67.5 0 0 1 121.81836 30.470703 A 67.5 67.5 0 0 1 124.70117 32.103516 A 67.5 67.5 0 0 1 127.50195 33.875 A 67.5 67.5 0 0 1 130.20898 35.783203 A 67.5 67.5 0 0 1 132.82227 37.822266 A 67.5 67.5 0 0 1 135.33008 39.986328 A 67.5 67.5 0 0 1 137.73047 42.269531 A 67.5 67.5 0 0 1 140.01367 44.669922 A 67.5 67.5 0 0 1 142.17773 47.177734 A 67.5 67.5 0 0 1 144.2168 49.791016 A 67.5 67.5 0 0 1 146.125 52.498047 A 67.5 67.5 0 0 1 147.89648 55.298828 A 67.5 67.5 0 0 1 149.5293 58.181641 A 67.5 67.5 0 0 1 151.01953 61.140625 A 67.5 67.5 0 0 1 152.36133 64.167969 A 67.5 67.5 0 0 1 153.55469 67.259766 A 67.5 67.5 0 0 1 154.59375 70.40625 A 67.5 67.5 0 0 1 155.47656 73.599609 A 67.5 67.5 0 0 1 156.20312 76.832031 A 67.5 67.5 0 0 1 156.76953 80.095703 A 67.5 67.5 0 0 1 157.17578 83.384766 A 67.5 67.5 0 0 1 157.41797 86.6875 A 67.5 67.5 0 0 1 157.5 90 A 67.5 67.5 0 0 1 156.8125 99.605469 A 67.5 67.5 0 0 1 154.76562 109.01758 A 67.5 67.5 0 0 1 151.40039 118.04102 A 67.5 67.5 0 0 1 146.78516 126.49414 A 67.5 67.5 0 0 1 141.01367 134.20312 A 67.5 67.5 0 0 1 134.20312 141.01367 A 67.5 67.5 0 0 1 126.49414 146.78516 A 67.5 67.5 0 0 1 118.04102 151.40039 A 67.5 67.5 0 0 1 109.01758 154.76562 A 67.5 67.5 0 0 1 99.605469 156.8125 A 67.5 67.5 0 0 1 90 157.5 A 67.5 67.5 0 0 1 80.394531 156.8125 A 67.5 67.5 0 0 1 70.982422 154.76562 A 67.5 67.5 0 0 1 61.958984 151.40039 A 67.5 67.5 0 0 1 53.505859 146.78516 A 67.5 67.5 0 0 1 45.796875 141.01367 A 67.5 67.5 0 0 1 38.986328 134.20312 A 67.5 67.5 0 0 1 33.214844 126.49414 A 67.5 67.5 0 0 1 28.599609 118.04102 A 67.5 67.5 0 0 1 25.234375 109.01758 A 67.5 67.5 0 0 1 23.1875 99.605469 A 67.5 67.5 0 0 1 22.5 90 A 67.5 67.5 0 0 1 23.1875 80.394531 A 67.5 67.5 0 0 1 25.234375 70.982422 A 67.5 67.5 0 0 1 28.599609 61.958984 A 67.5 67.5 0 0 1 33.214844 53.505859 A 67.5 67.5 0 0 1 38.986328 45.796875 A 67.5 67.5 0 0 1 45.796875 38.986328 A 67.5 67.5 0 0 1 53.505859 33.214844 A 67.5 67.5 0 0 1 61.958984 28.599609 A 67.5 67.5 0 0 1 70.982422 25.234375 A 67.5 67.5 0 0 1 80.394531 23.1875 A 67.5 67.5 0 0 1 90 22.5 z M 83.798828 28.193359 C 83.415253 28.188232 83.056836 28.253383 82.789062 28.572266 L 82.425781 28.851562 L 62.226562 55.544922 L 45.433594 55.544922 C 44.936488 55.861187 44.12048 55.910238 43.833984 56.402344 C 43.616196 57.12647 43.234856 57.848583 43.591797 58.59375 C 44.557584 62.662606 45.447463 66.75935 46.460938 70.810547 C 47.094175 72.382653 49.203621 73.425088 50.833984 72.576172 C 51.774408 72.126618 52.319099 71.179044 52.585938 70.240234 L 69.998047 68.933594 C 69.391499 70.059827 69.739147 71.350903 69.648438 72.566406 L 69.648438 84.466797 L 38 84.466797 C 37.49482 84.780461 36.702892 84.837762 36.386719 85.320312 C 36.044063 86.012066 35.859467 86.730353 35.955078 87.498047 L 35.955078 95.431641 C 36.282872 95.915046 36.343369 96.672064 36.847656 96.974609 C 37.570571 97.302495 38.322724 97.478209 39.125 97.386719 L 69.648438 97.386719 C 69.589728 100.59972 69.786636 103.82412 69.505859 107.0293 C 69.059841 111.83217 66.668663 116.422 62.916016 119.64258 C 57.94927 123.96683 51.496119 126.30058 45.082031 127.875 C 44.344081 127.9853 43.672006 128.22139 43.148438 128.75 C 42.432581 129.01743 42.6199 129.72836 42.564453 130.32031 C 42.487163 131.17582 43.157049 131.90283 43.408203 132.70117 C 44.613109 135.39109 45.818531 138.08156 47.023438 140.77148 C 47.523457 141.09712 47.88831 141.75455 48.476562 141.86133 C 49.816441 141.99773 51.025914 141.32752 52.277344 140.97266 C 60.664739 138.12427 68.84577 133.98667 74.837891 127.55664 C 79.702084 122.40522 82.684912 115.72725 83.40625 108.83203 C 83.825858 105.03038 83.584343 101.20125 83.648438 97.386719 L 104.83008 97.386719 L 104.83008 137.62891 C 105.15787 138.11232 105.21641 138.87128 105.7207 139.17383 C 106.44361 139.50171 107.19578 139.67743 107.99805 139.58594 C 110.95427 139.55894 113.93601 139.63942 116.87695 139.54492 C 117.47027 139.18638 118.44533 139.17018 118.53906 138.36523 C 119.07057 137.34753 118.73386 136.17942 118.82812 135.08594 L 118.82812 97.386719 L 148 97.386719 C 148.50518 97.073055 149.2971 97.015755 149.61328 96.533203 C 149.95594 95.84145 150.14053 95.123164 150.04492 94.355469 L 150.04492 86.421875 C 149.71713 85.938469 149.65663 85.181451 149.15234 84.878906 C 148.42943 84.551021 147.67728 84.375307 146.875 84.466797 L 118.82812 84.466797 C 118.83212 80.062694 118.81998 75.648991 118.83398 71.25 C 120.02105 70.366951 120.93741 68.741783 120.13281 67.353516 C 119.32841 65.861823 117.35669 65.502945 115.75391 65.5 L 126.10352 64.722656 C 128.89505 66.646688 131.40922 68.941092 133.53125 71.533203 C 134.10255 71.70797 134.64948 72.268435 135.23633 72.189453 C 136.03309 71.975719 136.7647 71.657328 137.31641 71.048828 C 140.00922 68.758783 142.70172 66.46778 145.39453 64.177734 C 145.54921 63.624845 146.11742 63.07341 146 62.519531 C 145.7067 61.793138 145.39589 61.078612 144.69922 60.623047 C 134.81087 51.61469 123.4249 44.18098 111.29102 38.224609 C 110.5099 38.254009 109.61916 37.891169 109.00195 38.507812 C 106.62186 40.703283 104.31169 42.98315 101.95898 45.210938 C 101.84112 45.77081 101.3014 46.358833 101.46289 46.900391 C 101.84604 47.531394 102.07531 48.309838 102.86719 48.572266 C 105.88241 50.315238 108.87808 52.089978 111.83789 53.917969 L 78.398438 55.341797 L 93.455078 39.039062 C 95.046649 39.008643 96.954233 38.360991 97.341797 36.701172 C 97.702144 34.864938 96.16961 33.146358 94.441406 32.554688 L 84.958984 28.232422 C 84.591732 28.272967 84.182403 28.198487 83.798828 28.193359 z M 105.28711 66.285156 L 104.83008 67.457031 L 104.83008 84.466797 L 83.648438 84.466797 C 83.655137 80.851628 83.634893 77.222751 83.658203 73.615234 C 84.879235 72.719078 85.78311 71.024505 84.904297 69.632812 C 84.377966 68.678174 83.249119 68.212401 82.189453 68.019531 L 105.28711 66.285156 z "fill="param(fill)" fill-opacity="param(fill-opacity)" stroke="param(outline)" stroke-opacity="param(outline-opacity)" stroke-width="param(outline-width)" />
    <path
       style="fill:#ffffff;stroke:#ffffff;stroke-width:0;stroke-linejoin:round;stroke-miterlimit:12.2"
       d="m 83.711014,78.998235 0.113632,-5.361871 0.448532,-0.476611 c 1.590595,-1.69017 1.306083,-3.772565 -0.648514,-4.746581 -0.616768,-0.307349 -0.737886,-0.416702 -0.461529,-0.416702 0.206076,0 5.195132,-0.363022 11.086791,-0.806715 5.891664,-0.443692 10.743504,-0.77532 10.781874,-0.736949 0.0384,0.03837 -0.004,0.263063 -0.0936,0.499316 -0.10444,0.274707 -0.16332,3.489744 -0.16332,8.918768 v 8.489216 H 94.186158 83.597382 Z"
       id="path1" />
    <path
       style="fill:#ffffff;stroke:#ffffff;stroke-width:0;stroke-linejoin:round;stroke-miterlimit:12.2"
       d="M 85.472198,157.26644 C 72.732444,156.41107 59.78242,151.62429 49.749348,144.06204 45.943206,141.19322 41.400451,136.9428 38.663239,133.68932 29.450314,122.73875 23.999251,109.5794 22.803128,95.401589 c -0.206881,-2.452191 -0.206881,-8.350987 0,-10.803178 1.196489,-14.182154 6.644363,-27.33381 15.860111,-38.287731 0.66162,-0.786408 2.313372,-2.543748 3.670559,-3.9052 C 51.777194,32.932415 63.651223,26.546758 76.703661,23.921937 81.471714,22.96309 84.720339,22.653076 90,22.653076 c 8.142558,0 15.09873,1.176653 22.48014,3.802568 21.44013,7.627267 37.54231,25.42434 42.97496,47.49846 1.48359,6.028168 1.97892,10.651628 1.85525,17.316858 -0.13991,7.540222 -1.13771,13.412378 -3.43928,20.240448 -9.76284,28.96346 -37.92327,47.80122 -68.398872,45.75503 z M 52.258593,141.05818 c 9.568106,-3.26739 16.579212,-7.33394 21.858151,-12.67808 4.9604,-5.02167 8.031661,-11.01327 9.127452,-17.8064 0.314715,-1.951 0.564308,-6.97131 0.517352,-10.406 l -0.03692,-2.700798 10.525154,-0.04085 10.525148,-0.04085 v 20.173408 20.1734 l 0.34249,0.70494 c 0.18837,0.38772 0.52795,0.80071 0.75463,0.91776 0.31571,0.16301 1.65755,0.22156 5.7343,0.25019 5.22736,0.0367 5.33489,0.0311 6.03707,-0.31774 1.28749,-0.63954 1.18655,1.12916 1.23303,-21.60402 l 0.0415,-20.295669 14.65399,-0.0035 c 14.17516,-0.0034 14.67626,-0.01359 15.33518,-0.31265 1.14002,-0.517415 1.18162,-0.739516 1.15524,-6.167293 -0.0212,-4.360362 -0.0444,-4.715379 -0.35077,-5.36715 -0.57606,-1.225525 0.10198,-1.176779 -16.36886,-1.176779 h -14.42835 v -6.493712 -6.493712 l 0.55384,-0.604657 c 1.13343,-1.237411 1.31631,-2.72032 0.47201,-3.827256 -0.45599,-0.597834 -1.79224,-1.323173 -2.44245,-1.325801 -0.21116,-8.53e-4 -0.35163,-0.03386 -0.31215,-0.07334 0.0395,-0.03948 2.05963,-0.22354 4.48921,-0.409015 l 4.41742,-0.337228 1.53102,1.163649 c 1.4511,1.10291 4.35025,3.835916 5.37499,5.066952 0.2596,0.311864 0.81355,0.73237 1.23101,0.934454 0.65876,0.318904 0.83583,0.344004 1.34076,0.190058 0.89982,-0.274342 1.25276,-0.542446 5.66561,-4.303809 4.92682,-4.199453 5.25059,-4.629368 4.53817,-6.02583 -0.77613,-1.521346 -9.59933,-8.693587 -15.97683,-12.987314 -5.0753,-3.417007 -9.95799,-6.309317 -15.42381,-9.136454 -2.89423,-1.497009 -3.07726,-1.568231 -4.03021,-1.568231 -1.18714,0 -0.82666,-0.27335 -5.29719,4.016811 -3.63128,3.484784 -4.02029,4.096735 -3.38509,5.325081 0.34293,0.66316 0.65691,0.889185 3.77685,2.718822 3.96516,2.325307 6.00352,3.567946 5.94638,3.625085 -0.0688,0.06881 -32.57359,1.453525 -32.638278,1.390404 -0.0297,-0.02898 3.277078,-3.659335 7.348395,-8.067455 l 7.402396,-8.014763 0.753986,-0.101494 c 1.062036,-0.142961 2.310016,-0.765433 2.737106,-1.365225 0.812294,-1.140762 0.521348,-2.800825 -0.703905,-4.016317 -0.571547,-0.566993 -1.531505,-1.059584 -6.035416,-3.097003 -4.787797,-2.165839 -5.446911,-2.422772 -6.215195,-2.422772 -0.713971,0 -0.941572,0.07394 -1.344807,0.436894 -0.26696,0.240291 -4.974475,6.370697 -10.461144,13.623124 l -9.975762,13.186231 -8.566076,0.07943 c -7.802144,0.07235 -8.620178,0.104826 -9.172738,0.364145 -0.689448,0.32356 -1.062368,1.018092 -1.059962,1.974089 0.0012,0.493905 2.201802,10.320424 2.847813,12.716809 0.512293,1.900357 2.879386,2.989705 4.594817,2.114557 0.700467,-0.357352 0.914013,-0.589911 1.453034,-1.582408 l 0.397617,-0.73213 8.541637,-0.638555 c 7.377593,-0.551534 8.527539,-0.605707 8.438176,-0.397522 -0.164,0.382072 -0.215159,2.502313 -0.217604,9.018615 l -0.0023,6.076787 H 53.782111 38.058486 l -0.868242,0.383978 c -1.290855,0.570877 -1.366723,0.925918 -1.358453,6.357125 0.0063,4.107159 0.02232,4.332502 0.357458,5.015296 0.678675,1.382679 -0.630182,1.286882 17.417231,1.274784 l 15.899257,-0.01066 -6.39e-4,4.650364 c -7.1e-4,5.17221 -0.159439,6.67725 -0.954479,9.05029 -1.108724,3.30932 -3.125471,6.29879 -5.772971,8.5574 -4.007715,3.41902 -9.350059,5.95512 -16.546205,7.85477 -2.459945,0.64938 -2.666308,0.732 -3.296756,1.32002 -0.367175,0.34246 -0.436894,0.53789 -0.436894,1.22469 0,0.83281 -0.05012,0.71072 4.068375,9.91163 0.211447,0.47237 0.65154,1.09495 0.977985,1.3835 0.897453,0.79325 1.727757,0.74479 4.71444,-0.27512 z"
       id="path3" />
  </g>
</svg>
