<?xml version="1.0" encoding="UTF-8" standalone="no"?>
<!DOCTYPE svg PUBLIC "-//W3C//DTD SVG 1.1//EN" "http://www.w3.org/Graphics/SVG/1.1/DTD/svg11.dtd">
<svg xmlns="http://www.w3.org/2000/svg" xmlns:xlink="http://www.w3.org/1999/xlink" viewBox="0.201490066225166 -2.60778145695364 0.455298013245033 0.447350993377483" enable-background="new" shape-rendering="auto">
<defs>
<filter id="T">
  <feBlend mode="normal" in2="BackgroundImage" in="SourceGraphic"/>
</filter>
</defs>
<g>
<title>haisui_sikirisen_maisetu</title>
<defs>
<g id="L1">
</g>
<style type="text/css"><![CDATA[.C1{fill:#ffffff;stroke:#ff0000;stroke-width:0.000500000000000;stroke-antialiasing:true;stroke-linecap:square;stroke-linejoin:miter}]]></style>
</defs>
<path class="C1" d="M0.6367 -2.4633L0.6316 -2.4751L0.6312 -2.4760L0.6283 -2.4818L0.6278 -2.4827L0.6216 -2.4940L0.6211 -2.4948L0.6177 -2.5003L0.6172 -2.5011L0.6099 -2.5116L0.6093 -2.5124L0.6054 -2.5175L0.6048 -2.5183L0.5965 -2.5281L0.5959 -2.5288L0.5915 -2.5335L0.5909 -2.5342L0.5817 -2.5432L0.5810 -2.5438L0.5762 -2.5481L0.5754 -2.5488L0.5654 -2.5569L0.5647 -2.5574L0.5595 -2.5613L0.5587 -2.5618L0.5479 -2.5690L0.5471 -2.5695L0.5415 -2.5728L0.5407 -2.5733L0.5292 -2.5794L0.5284 -2.5798L0.5225 -2.5827L0.5216 -2.5830L0.5095 -2.5881L0.5086 -2.5884L0.5024 -2.5907L0.5014 -2.5910L0.4888 -2.5949L0.4878 -2.5951L0.4814 -2.5968L0.4804 -2.5970L0.4672 -2.5997L0.4663 -2.5998L0.4596 -2.6008L0.4586 -2.6010L0.4450 -2.6023L0.4440 -2.6024L0.4371 -2.6028L0.4361 -2.6028L0.4222 -2.6028L0.4212 -2.6028L0.4143 -2.6024L0.4133 -2.6023L0.3997 -2.6010L0.3987 -2.6008L0.3920 -2.5998L0.3911 -2.5997L0.3779 -2.5970L0.3769 -2.5968L0.3705 -2.5951L0.3695 -2.5949L0.3569 -2.5910L0.3559 -2.5907L0.3497 -2.5884L0.3488 -2.5881L0.3367 -2.5830L0.3358 -2.5827L0.3299 -2.5798L0.3291 -2.5794L0.3176 -2.5733L0.3167 -2.5728L0.3112 -2.5695L0.3104 -2.5690L0.2996 -2.5618L0.2988 -2.5613L0.2936 -2.5574L0.2928 -2.5569L0.2828 -2.5488L0.2821 -2.5481L0.2773 -2.5438L0.2766 -2.5432L0.2674 -2.5342L0.2668 -2.5335L0.2624 -2.5288L0.2618 -2.5281L0.2535 -2.5183L0.2529 -2.5175L0.2490 -2.5124L0.2484 -2.5116L0.2411 -2.5011L0.2406 -2.5003L0.2372 -2.4948L0.2367 -2.4940L0.2304 -2.4827L0.2300 -2.4818L0.2271 -2.4760L0.2267 -2.4751L0.2216 -2.4633L0.2212 -2.4623L0.2189 -2.4563L0.2186 -2.4553L0.2146 -2.4429L0.2143 -2.4419L0.2126 -2.4356L0.2124 -2.4346L0.2097 -2.4217L0.2095 -2.4207L0.2085 -2.4141L0.2083 -2.4131L0.2070 -2.3998L0.2069 -2.3987L0.2065 -2.3920L0.2065 -2.3909L0.2065 -2.3773L0.2065 -2.3762L0.2069 -2.3695L0.2070 -2.3684L0.2083 -2.3551L0.2085 -2.3541L0.2095 -2.3475L0.2097 -2.3465L0.2124 -2.3336L0.2126 -2.3326L0.2143 -2.3263L0.2146 -2.3253L0.2186 -2.3129L0.2189 -2.3119L0.2212 -2.3059L0.2216 -2.3049L0.2267 -2.2931L0.2271 -2.2922L0.2300 -2.2864L0.2304 -2.2855L0.2367 -2.2743L0.2372 -2.2734L0.2406 -2.2680L0.2411 -2.2671L0.2484 -2.2566L0.2490 -2.2558L0.2529 -2.2507L0.2535 -2.2499L0.2618 -2.2401L0.2624 -2.2394L0.2668 -2.2347L0.2674 -2.2340L0.2766 -2.2250L0.2773 -2.2244L0.2821 -2.2201L0.2828 -2.2195L0.2928 -2.2113L0.2936 -2.2108L0.2988 -2.2069L0.2996 -2.2064L0.3104 -2.1992L0.3112 -2.1987L0.3167 -2.1954L0.3176 -2.1949L0.3291 -2.1888L0.3299 -2.1884L0.3358 -2.1856L0.3367 -2.1852L0.3488 -2.1801L0.3497 -2.1798L0.3559 -2.1775L0.3569 -2.1772L0.3695 -2.1733L0.3705 -2.1731L0.3769 -2.1714L0.3779 -2.1712L0.3911 -2.1686L0.3920 -2.1684L0.3987 -2.1674L0.3997 -2.1672L0.4133 -2.1659L0.4143 -2.1658L0.4212 -2.1655L0.4222 -2.1654L0.4361 -2.1654L0.4371 -2.1655L0.4440 -2.1658L0.4450 -2.1659L0.4586 -2.1672L0.4596 -2.1674L0.4663 -2.1684L0.4672 -2.1686L0.4804 -2.1712L0.4814 -2.1714L0.4878 -2.1731L0.4888 -2.1733L0.5014 -2.1772L0.5024 -2.1775L0.5086 -2.1798L0.5095 -2.1801L0.5216 -2.1852L0.5225 -2.1856L0.5284 -2.1884L0.5292 -2.1888L0.5407 -2.1949L0.5415 -2.1954L0.5471 -2.1987L0.5479 -2.1992L0.5587 -2.2064L0.5595 -2.2069L0.5647 -2.2108L0.5654 -2.2113L0.5754 -2.2195L0.5762 -2.2201L0.5810 -2.2244L0.5817 -2.2250L0.5909 -2.2340L0.5915 -2.2347L0.5959 -2.2394L0.5965 -2.2401L0.6048 -2.2499L0.6054 -2.2507L0.6093 -2.2558L0.6099 -2.2566L0.6172 -2.2671L0.6177 -2.2680L0.6211 -2.2734L0.6216 -2.2743L0.6278 -2.2855L0.6283 -2.2864L0.6312 -2.2922L0.6316 -2.2931L0.6367 -2.3049L0.6371 -2.3059L0.6394 -2.3119L0.6397 -2.3129L0.6437 -2.3253L0.6440 -2.3263L0.6456 -2.3326L0.6459 -2.3336L0.6486 -2.3465L0.6488 -2.3475L0.6498 -2.3541L0.6499 -2.3551L0.6513 -2.3684L0.6514 -2.3695L0.6518 -2.3762L0.6518 -2.3773L0.6518 -2.3909L0.6518 -2.3920L0.6514 -2.3987L0.6513 -2.3998L0.6499 -2.4131L0.6498 -2.4141L0.6488 -2.4207L0.6486 -2.4217L0.6459 -2.4346L0.6456 -2.4356L0.6440 -2.4419L0.6437 -2.4429L0.6397 -2.4553L0.6394 -2.4563L0.6371 -2.4623L0.6367 -2.4633z" fill="param(fill)" fill-opacity="param(fill-opacity)" stroke="param(outline)" stroke-opacity="param(outline-opacity)" stroke-width="param(outline-width)"/>
<defs>
<g id="L2">
<style type="text/css"><![CDATA[.C2{fill:#ff0000;stroke:none}]]></style>
<path class="C2" d="M0.4814 -2.6019L0.4682 -2.6046L0.4681 -2.6046L0.4671 -2.6048L0.4670 -2.6048L0.4603 -2.6058L0.4602 -2.6058L0.4592 -2.6059L0.4591 -2.6059L0.4455 -2.6073L0.4454 -2.6073L0.4444 -2.6074L0.4443 -2.6074L0.4374 -2.6077L0.4372 -2.6078L0.4362 -2.6078L0.4361 -2.6078L0.4222 -2.6078L0.4220 -2.6078L0.4210 -2.6078L0.4209 -2.6077L0.4140 -2.6074L0.4139 -2.6074L0.4129 -2.6073L0.4128 -2.6073L0.3992 -2.6059L0.3991 -2.6059L0.3981 -2.6058L0.3980 -2.6058L0.3913 -2.6048L0.3911 -2.6048L0.3902 -2.6046L0.3901 -2.6046L0.3769 -2.6019L0.3768 -2.6019L0.3758 -2.6017L0.3757 -2.6016L0.3692 -2.6000L0.3691 -2.6000L0.3682 -2.5997L0.3681 -2.5997L0.3554 -2.5958L0.3553 -2.5957L0.3543 -2.5954L0.3542 -2.5954L0.3480 -2.5931L0.3479 -2.5931L0.3470 -2.5928L0.3469 -2.5927L0.3348 -2.5877L0.3347 -2.5876L0.3338 -2.5872L0.3337 -2.5872L0.3278 -2.5844L0.3277 -2.5843L0.3268 -2.5839L0.3267 -2.5838L0.3152 -2.5777L0.3151 -2.5776L0.3143 -2.5772L0.3142 -2.5771L0.3086 -2.5738L0.3085 -2.5737L0.3077 -2.5732L0.3076 -2.5731L0.2968 -2.5660L0.2967 -2.5659L0.2959 -2.5654L0.2958 -2.5653L0.2906 -2.5615L0.2905 -2.5614L0.2898 -2.5608L0.2897 -2.5608L0.2797 -2.5526L0.2796 -2.5526L0.2789 -2.5519L0.2788 -2.5519L0.2740 -2.5476L0.2739 -2.5475L0.2732 -2.5469L0.2731 -2.5468L0.2639 -2.5378L0.2638 -2.5377L0.2632 -2.5370L0.2631 -2.5369L0.2587 -2.5322L0.2586 -2.5321L0.2580 -2.5314L0.2579 -2.5313L0.2497 -2.5215L0.2496 -2.5214L0.2490 -2.5207L0.2489 -2.5206L0.2450 -2.5155L0.2449 -2.5154L0.2444 -2.5146L0.2443 -2.5145L0.2370 -2.5039L0.2369 -2.5038L0.2364 -2.5030L0.2363 -2.5029L0.2329 -2.4974L0.2329 -2.4973L0.2324 -2.4965L0.2323 -2.4964L0.2261 -2.4851L0.2260 -2.4850L0.2256 -2.4842L0.2255 -2.4840L0.2226 -2.4783L0.2226 -2.4781L0.2222 -2.4772L0.2221 -2.4771L0.2170 -2.4653L0.2169 -2.4651L0.2166 -2.4642L0.2165 -2.4641L0.2142 -2.4580L0.2142 -2.4579L0.2138 -2.4569L0.2138 -2.4568L0.2098 -2.4444L0.2098 -2.4443L0.2095 -2.4433L0.2095 -2.4432L0.2078 -2.4369L0.2078 -2.4367L0.2075 -2.4357L0.2075 -2.4356L0.2048 -2.4227L0.2048 -2.4226L0.2046 -2.4216L0.2046 -2.4215L0.2035 -2.4149L0.2035 -2.4148L0.2034 -2.4137L0.2034 -2.4136L0.2020 -2.4003L0.2020 -2.4002L0.2019 -2.3991L0.2019 -2.3990L0.2015 -2.3923L0.2015 -2.3921L0.2015 -2.3911L0.2015 -2.3909L0.2015 -2.3773L0.2015 -2.3771L0.2015 -2.3761L0.2015 -2.3760L0.2019 -2.3692L0.2019 -2.3691L0.2020 -2.3681L0.2020 -2.3679L0.2034 -2.3546L0.2034 -2.3545L0.2035 -2.3534L0.2035 -2.3533L0.2046 -2.3468L0.2046 -2.3466L0.2048 -2.3456L0.2048 -2.3455L0.2075 -2.3326L0.2075 -2.3325L0.2078 -2.3315L0.2078 -2.3314L0.2095 -2.3250L0.2095 -2.3249L0.2098 -2.3239L0.2098 -2.3238L0.2138 -2.3114L0.2138 -2.3113L0.2142 -2.3103L0.2142 -2.3102L0.2165 -2.3041L0.2166 -2.3040L0.2169 -2.3031L0.2170 -2.3030L0.2221 -2.2911L0.2222 -2.2910L0.2226 -2.2901L0.2226 -2.2900L0.2255 -2.2842L0.2256 -2.2841L0.2260 -2.2832L0.2261 -2.2831L0.2323 -2.2718L0.2324 -2.2717L0.2329 -2.2709L0.2329 -2.2708L0.2363 -2.2653L0.2364 -2.2652L0.2369 -2.2644L0.2370 -2.2643L0.2443 -2.2537L0.2444 -2.2536L0.2449 -2.2529L0.2450 -2.2528L0.2489 -2.2476L0.2490 -2.2476L0.2496 -2.2468L0.2497 -2.2467L0.2579 -2.2369L0.2580 -2.2368L0.2586 -2.2361L0.2587 -2.2360L0.2631 -2.2313L0.2632 -2.2312L0.2638 -2.2305L0.2639 -2.2304L0.2731 -2.2214L0.2732 -2.2214L0.2739 -2.2207L0.2740 -2.2206L0.2788 -2.2163L0.2789 -2.2163L0.2796 -2.2157L0.2797 -2.2156L0.2897 -2.2075L0.2898 -2.2074L0.2905 -2.2068L0.2906 -2.2067L0.2958 -2.2029L0.2959 -2.2028L0.2967 -2.2023L0.2968 -2.2022L0.3076 -2.1951L0.3077 -2.1950L0.3085 -2.1945L0.3086 -2.1944L0.3142 -2.1911L0.3143 -2.1910L0.3151 -2.1906L0.3152 -2.1905L0.3267 -2.1844L0.3268 -2.1843L0.3277 -2.1839L0.3278 -2.1838L0.3337 -2.1810L0.3338 -2.1810L0.3347 -2.1806L0.3348 -2.1806L0.3469 -2.1755L0.3470 -2.1755L0.3479 -2.1751L0.3480 -2.1751L0.3542 -2.1728L0.3543 -2.1728L0.3553 -2.1725L0.3554 -2.1724L0.3681 -2.1686L0.3682 -2.1685L0.3691 -2.1683L0.3692 -2.1682L0.3757 -2.1666L0.3758 -2.1666L0.3768 -2.1663L0.3769 -2.1663L0.3901 -2.1637L0.3902 -2.1636L0.3911 -2.1635L0.3913 -2.1634L0.3980 -2.1624L0.3981 -2.1624L0.3991 -2.1623L0.3992 -2.1623L0.4128 -2.1609L0.4129 -2.1609L0.4139 -2.1608L0.4140 -2.1608L0.4209 -2.1605L0.4210 -2.1605L0.4220 -2.1604L0.4222 -2.1604L0.4361 -2.1604L0.4362 -2.1604L0.4372 -2.1605L0.4374 -2.1605L0.4443 -2.1608L0.4444 -2.1608L0.4454 -2.1609L0.4455 -2.1609L0.4591 -2.1623L0.4592 -2.1623L0.4602 -2.1624L0.4603 -2.1624L0.4670 -2.1634L0.4671 -2.1635L0.4681 -2.1636L0.4682 -2.1637L0.4814 -2.1663L0.4815 -2.1663L0.4825 -2.1666L0.4826 -2.1666L0.4891 -2.1682L0.4892 -2.1683L0.4901 -2.1685L0.4902 -2.1686L0.5029 -2.1724L0.5030 -2.1725L0.5039 -2.1728L0.5041 -2.1728L0.5103 -2.1751L0.5104 -2.1751L0.5113 -2.1755L0.5114 -2.1755L0.5235 -2.1806L0.5236 -2.1806L0.5245 -2.1810L0.5246 -2.1810L0.5305 -2.1838L0.5306 -2.1839L0.5315 -2.1843L0.5316 -2.1844L0.5431 -2.1905L0.5432 -2.1906L0.5440 -2.1910L0.5441 -2.1911L0.5497 -2.1944L0.5498 -2.1945L0.5506 -2.1950L0.5507 -2.1951L0.5615 -2.2022L0.5616 -2.2023L0.5623 -2.2028L0.5624 -2.2029L0.5676 -2.2067L0.5677 -2.2068L0.5685 -2.2074L0.5686 -2.2075L0.5786 -2.2156L0.5787 -2.2157L0.5794 -2.2163L0.5795 -2.2163L0.5843 -2.2206L0.5844 -2.2207L0.5851 -2.2214L0.5852 -2.2214L0.5944 -2.2304L0.5944 -2.2305L0.5951 -2.2312L0.5952 -2.2313L0.5996 -2.2360L0.5996 -2.2361L0.6003 -2.2368L0.6003 -2.2369L0.6086 -2.2467L0.6087 -2.2468L0.6093 -2.2476L0.6094 -2.2476L0.6133 -2.2528L0.6133 -2.2529L0.6139 -2.2536L0.6140 -2.2537L0.6213 -2.2643L0.6213 -2.2644L0.6219 -2.2652L0.6219 -2.2653L0.6253 -2.2708L0.6254 -2.2709L0.6259 -2.2717L0.6260 -2.2718L0.6322 -2.2831L0.6323 -2.2832L0.6327 -2.2841L0.6328 -2.2842L0.6356 -2.2900L0.6357 -2.2901L0.6361 -2.2910L0.6362 -2.2911L0.6413 -2.3030L0.6414 -2.3031L0.6417 -2.3040L0.6418 -2.3041L0.6441 -2.3102L0.6441 -2.3103L0.6444 -2.3113L0.6445 -2.3114L0.6484 -2.3238L0.6485 -2.3239L0.6488 -2.3249L0.6488 -2.3250L0.6505 -2.3314L0.6505 -2.3315L0.6507 -2.3325L0.6508 -2.3326L0.6535 -2.3455L0.6535 -2.3456L0.6537 -2.3466L0.6537 -2.3468L0.6547 -2.3533L0.6548 -2.3534L0.6549 -2.3545L0.6549 -2.3546L0.6563 -2.3679L0.6563 -2.3681L0.6564 -2.3691L0.6564 -2.3692L0.6568 -2.3760L0.6568 -2.3761L0.6568 -2.3771L0.6568 -2.3773L0.6568 -2.3909L0.6568 -2.3911L0.6568 -2.3921L0.6568 -2.3923L0.6564 -2.3990L0.6564 -2.3991L0.6563 -2.4002L0.6563 -2.4003L0.6549 -2.4136L0.6549 -2.4137L0.6548 -2.4148L0.6547 -2.4149L0.6537 -2.4215L0.6537 -2.4216L0.6535 -2.4226L0.6535 -2.4227L0.6508 -2.4356L0.6507 -2.4357L0.6505 -2.4367L0.6505 -2.4369L0.6488 -2.4432L0.6488 -2.4433L0.6485 -2.4443L0.6484 -2.4444L0.6445 -2.4568L0.6444 -2.4569L0.6441 -2.4579L0.6441 -2.4580L0.6418 -2.4641L0.6417 -2.4642L0.6414 -2.4651L0.6413 -2.4653L0.6362 -2.4771L0.6361 -2.4772L0.6357 -2.4781L0.6356 -2.4783L0.6328 -2.4840L0.6327 -2.4842L0.6323 -2.4850L0.6322 -2.4851L0.6260 -2.4964L0.6259 -2.4965L0.6254 -2.4973L0.6253 -2.4974L0.6219 -2.5029L0.6219 -2.5030L0.6213 -2.5038L0.6213 -2.5039L0.6140 -2.5145L0.6139 -2.5146L0.6133 -2.5154L0.6133 -2.5155L0.6094 -2.5206L0.6093 -2.5207L0.6087 -2.5214L0.6086 -2.5215L0.6003 -2.5313L0.6003 -2.5314L0.5996 -2.5321L0.5996 -2.5322L0.5952 -2.5369L0.5951 -2.5370L0.5944 -2.5377L0.5944 -2.5378L0.5852 -2.5468L0.5851 -2.5469L0.5844 -2.5475L0.5843 -2.5476L0.5795 -2.5519L0.5794 -2.5519L0.5787 -2.5526L0.5786 -2.5526L0.5686 -2.5608L0.5685 -2.5608L0.5677 -2.5614L0.5676 -2.5615L0.5624 -2.5653L0.5623 -2.5654L0.5616 -2.5659L0.5615 -2.5660L0.5507 -2.5731L0.5506 -2.5732L0.5498 -2.5737L0.5497 -2.5738L0.5441 -2.5771L0.5440 -2.5772L0.5432 -2.5776L0.5431 -2.5777L0.5316 -2.5838L0.5315 -2.5839L0.5306 -2.5843L0.5305 -2.5844L0.5246 -2.5872L0.5245 -2.5872L0.5236 -2.5876L0.5235 -2.5877L0.5114 -2.5927L0.5113 -2.5928L0.5104 -2.5931L0.5103 -2.5931L0.5041 -2.5954L0.5039 -2.5954L0.5030 -2.5957L0.5029 -2.5958L0.4902 -2.5997L0.4901 -2.5997L0.4892 -2.6000L0.4891 -2.6000L0.4826 -2.6016L0.4825 -2.6017L0.4815 -2.6019L0.4814 -2.6019zM0.4793 -2.5921L0.4802 -2.5919L0.4865 -2.5903L0.4873 -2.5901L0.4999 -2.5862L0.5007 -2.5860L0.5068 -2.5838L0.5076 -2.5835L0.5196 -2.5785L0.5204 -2.5781L0.5262 -2.5754L0.5269 -2.5750L0.5383 -2.5689L0.5390 -2.5685L0.5445 -2.5652L0.5452 -2.5648L0.5559 -2.5577L0.5566 -2.5572L0.5617 -2.5534L0.5623 -2.5529L0.5723 -2.5449L0.5729 -2.5444L0.5776 -2.5402L0.5782 -2.5396L0.5873 -2.5307L0.5879 -2.5301L0.5922 -2.5254L0.5927 -2.5248L0.6009 -2.5151L0.6015 -2.5144L0.6053 -2.5094L0.6058 -2.5087L0.6130 -2.4983L0.6135 -2.4976L0.6168 -2.4922L0.6172 -2.4915L0.6234 -2.4803L0.6238 -2.4796L0.6266 -2.4739L0.6270 -2.4731L0.6321 -2.4613L0.6324 -2.4605L0.6347 -2.4546L0.6350 -2.4537L0.6389 -2.4414L0.6391 -2.4406L0.6408 -2.4344L0.6410 -2.4335L0.6437 -2.4207L0.6438 -2.4198L0.6448 -2.4134L0.6450 -2.4125L0.6463 -2.3993L0.6464 -2.3984L0.6468 -2.3918L0.6468 -2.3909L0.6468 -2.3773L0.6468 -2.3764L0.6464 -2.3698L0.6463 -2.3689L0.6450 -2.3557L0.6448 -2.3548L0.6438 -2.3484L0.6437 -2.3475L0.6410 -2.3347L0.6408 -2.3338L0.6391 -2.3276L0.6389 -2.3268L0.6350 -2.3145L0.6347 -2.3136L0.6324 -2.3077L0.6321 -2.3069L0.6270 -2.2951L0.6266 -2.2943L0.6238 -2.2886L0.6234 -2.2879L0.6172 -2.2767L0.6168 -2.2760L0.6135 -2.2706L0.6130 -2.2699L0.6058 -2.2595L0.6053 -2.2588L0.6015 -2.2538L0.6009 -2.2531L0.5927 -2.2434L0.5922 -2.2428L0.5879 -2.2381L0.5873 -2.2375L0.5782 -2.2286L0.5776 -2.2281L0.5729 -2.2238L0.5723 -2.2233L0.5623 -2.2153L0.5617 -2.2148L0.5566 -2.2110L0.5559 -2.2105L0.5452 -2.2034L0.5445 -2.2030L0.5390 -2.1997L0.5383 -2.1993L0.5269 -2.1932L0.5262 -2.1929L0.5204 -2.1901L0.5196 -2.1898L0.5076 -2.1848L0.5068 -2.1845L0.5007 -2.1823L0.4999 -2.1820L0.4873 -2.1781L0.4865 -2.1779L0.4802 -2.1763L0.4793 -2.1761L0.4663 -2.1735L0.4655 -2.1733L0.4589 -2.1723L0.4580 -2.1722L0.4446 -2.1709L0.4437 -2.1708L0.4369 -2.1705L0.4360 -2.1704L0.4222 -2.1704L0.4214 -2.1705L0.4146 -2.1708L0.4137 -2.1709L0.4003 -2.1722L0.3994 -2.1723L0.3928 -2.1733L0.3920 -2.1735L0.3789 -2.1761L0.3781 -2.1763L0.3717 -2.1779L0.3709 -2.1781L0.3584 -2.1820L0.3576 -2.1823L0.3515 -2.1845L0.3507 -2.1848L0.3387 -2.1898L0.3379 -2.1901L0.3321 -2.1929L0.3314 -2.1932L0.3200 -2.1993L0.3193 -2.1997L0.3138 -2.2030L0.3131 -2.2034L0.3024 -2.2105L0.3017 -2.2110L0.2966 -2.2148L0.2960 -2.2153L0.2860 -2.2233L0.2854 -2.2238L0.2807 -2.2281L0.2801 -2.2286L0.2710 -2.2375L0.2704 -2.2381L0.2661 -2.2428L0.2655 -2.2434L0.2573 -2.2531L0.2568 -2.2538L0.2530 -2.2588L0.2525 -2.2595L0.2453 -2.2699L0.2448 -2.2706L0.2415 -2.2760L0.2410 -2.2767L0.2348 -2.2879L0.2344 -2.2886L0.2316 -2.2943L0.2313 -2.2951L0.2262 -2.3069L0.2258 -2.3077L0.2236 -2.3136L0.2233 -2.3145L0.2194 -2.3268L0.2191 -2.3276L0.2175 -2.3338L0.2173 -2.3347L0.2146 -2.3475L0.2144 -2.3484L0.2134 -2.3548L0.2133 -2.3557L0.2119 -2.3689L0.2119 -2.3698L0.2115 -2.3764L0.2115 -2.3773L0.2115 -2.3909L0.2115 -2.3918L0.2119 -2.3984L0.2119 -2.3993L0.2133 -2.4125L0.2134 -2.4134L0.2144 -2.4198L0.2146 -2.4207L0.2173 -2.4335L0.2175 -2.4344L0.2191 -2.4406L0.2194 -2.4414L0.2233 -2.4537L0.2236 -2.4546L0.2258 -2.4605L0.2262 -2.4613L0.2313 -2.4731L0.2316 -2.4739L0.2344 -2.4796L0.2348 -2.4803L0.2410 -2.4915L0.2415 -2.4922L0.2448 -2.4976L0.2453 -2.4983L0.2525 -2.5087L0.2530 -2.5094L0.2568 -2.5144L0.2573 -2.5151L0.2655 -2.5248L0.2661 -2.5254L0.2704 -2.5301L0.2710 -2.5307L0.2801 -2.5396L0.2807 -2.5402L0.2854 -2.5444L0.2860 -2.5449L0.2960 -2.5529L0.2966 -2.5534L0.3017 -2.5572L0.3024 -2.5577L0.3131 -2.5648L0.3138 -2.5652L0.3193 -2.5685L0.3200 -2.5689L0.3314 -2.5750L0.3321 -2.5754L0.3379 -2.5781L0.3387 -2.5785L0.3507 -2.5835L0.3515 -2.5838L0.3576 -2.5860L0.3584 -2.5862L0.3709 -2.5901L0.3717 -2.5903L0.3781 -2.5919L0.3789 -2.5921L0.3920 -2.5947L0.3928 -2.5949L0.3994 -2.5959L0.4003 -2.5960L0.4137 -2.5974L0.4146 -2.5974L0.4214 -2.5978L0.4222 -2.5978L0.4360 -2.5978L0.4369 -2.5978L0.4437 -2.5974L0.4446 -2.5974L0.4580 -2.5960L0.4589 -2.5959L0.4655 -2.5949L0.4663 -2.5947L0.4793 -2.5921z" fill="param(fill)" fill-opacity="param(fill-opacity)" stroke="param(outline)" stroke-opacity="param(outline-opacity)" stroke-width="param(outline-width)"/>
<path class="C2" d="M0.6177 -2.4692L0.6176 -2.4694L0.6148 -2.4751L0.6147 -2.4753L0.6132 -2.4781L0.6132 -2.4782L0.6100 -2.4838L0.6100 -2.4840L0.6083 -2.4867L0.6083 -2.4868L0.6049 -2.4923L0.6048 -2.4924L0.6031 -2.4951L0.6030 -2.4952L0.5993 -2.5005L0.5993 -2.5006L0.5974 -2.5032L0.5973 -2.5033L0.5934 -2.5084L0.5933 -2.5085L0.5913 -2.5110L0.5913 -2.5111L0.5871 -2.5160L0.5870 -2.5161L0.5849 -2.5185L0.5848 -2.5186L0.5805 -2.5233L0.5804 -2.5234L0.5781 -2.5257L0.5781 -2.5257L0.5735 -2.5302L0.5734 -2.5303L0.5710 -2.5325L0.5709 -2.5326L0.5661 -2.5369L0.5660 -2.5370L0.5636 -2.5390L0.5635 -2.5391L0.5585 -2.5432L0.5584 -2.5433L0.5558 -2.5452L0.5558 -2.5453L0.5505 -2.5491L0.5504 -2.5492L0.5478 -2.5510L0.5477 -2.5511L0.5423 -2.5547L0.5422 -2.5548L0.5395 -2.5565L0.5394 -2.5565L0.5338 -2.5599L0.5337 -2.5599L0.5309 -2.5615L0.5308 -2.5616L0.5250 -2.5647L0.5249 -2.5647L0.5220 -2.5662L0.5219 -2.5662L0.5160 -2.5690L0.5159 -2.5691L0.5129 -2.5704L0.5128 -2.5705L0.5067 -2.5730L0.5066 -2.5730L0.5035 -2.5742L0.5034 -2.5743L0.4972 -2.5765L0.4971 -2.5765L0.4940 -2.5776L0.4939 -2.5776L0.4875 -2.5796L0.4874 -2.5796L0.4842 -2.5805L0.4841 -2.5805L0.4776 -2.5822L0.4775 -2.5822L0.4742 -2.5829L0.4741 -2.5830L0.4675 -2.5843L0.4674 -2.5843L0.4641 -2.5849L0.4640 -2.5849L0.4573 -2.5859L0.4572 -2.5859L0.4538 -2.5864L0.4537 -2.5864L0.4469 -2.5871L0.4468 -2.5871L0.4433 -2.5873L0.4432 -2.5873L0.4363 -2.5877L0.4362 -2.5877L0.4327 -2.5878L0.4326 -2.5878L0.4257 -2.5878L0.4255 -2.5878L0.4221 -2.5877L0.4219 -2.5877L0.4151 -2.5873L0.4149 -2.5873L0.4115 -2.5871L0.4114 -2.5871L0.4046 -2.5864L0.4045 -2.5864L0.4011 -2.5859L0.4010 -2.5859L0.3943 -2.5849L0.3942 -2.5849L0.3909 -2.5843L0.3907 -2.5843L0.3842 -2.5830L0.3840 -2.5829L0.3808 -2.5822L0.3806 -2.5822L0.3742 -2.5805L0.3741 -2.5805L0.3709 -2.5796L0.3708 -2.5796L0.3644 -2.5776L0.3643 -2.5776L0.3612 -2.5765L0.3611 -2.5765L0.3549 -2.5743L0.3547 -2.5742L0.3517 -2.5730L0.3516 -2.5730L0.3455 -2.5705L0.3454 -2.5704L0.3424 -2.5691L0.3423 -2.5690L0.3364 -2.5662L0.3363 -2.5662L0.3334 -2.5647L0.3333 -2.5647L0.3275 -2.5616L0.3274 -2.5615L0.3246 -2.5599L0.3245 -2.5599L0.3189 -2.5565L0.3188 -2.5565L0.3161 -2.5548L0.3160 -2.5547L0.3106 -2.5511L0.3105 -2.5510L0.3078 -2.5492L0.3077 -2.5491L0.3025 -2.5453L0.3024 -2.5452L0.2999 -2.5433L0.2998 -2.5432L0.2948 -2.5391L0.2947 -2.5390L0.2922 -2.5370L0.2921 -2.5369L0.2873 -2.5326L0.2872 -2.5325L0.2849 -2.5303L0.2848 -2.5302L0.2802 -2.5257L0.2801 -2.5257L0.2779 -2.5234L0.2778 -2.5233L0.2734 -2.5186L0.2734 -2.5185L0.2712 -2.5161L0.2712 -2.5160L0.2670 -2.5111L0.2669 -2.5110L0.2649 -2.5085L0.2649 -2.5084L0.2610 -2.5033L0.2609 -2.5032L0.2590 -2.5006L0.2589 -2.5005L0.2553 -2.4952L0.2552 -2.4951L0.2535 -2.4924L0.2534 -2.4923L0.2500 -2.4868L0.2499 -2.4867L0.2483 -2.4840L0.2482 -2.4838L0.2451 -2.4782L0.2450 -2.4781L0.2436 -2.4753L0.2435 -2.4751L0.2406 -2.4694L0.2406 -2.4692L0.2392 -2.4663L0.2392 -2.4662L0.2366 -2.4603L0.2366 -2.4602L0.2353 -2.4571L0.2353 -2.4570L0.2330 -2.4510L0.2330 -2.4508L0.2319 -2.4478L0.2319 -2.4476L0.2299 -2.4414L0.2298 -2.4413L0.2289 -2.4382L0.2289 -2.4381L0.2272 -2.4317L0.2272 -2.4316L0.2264 -2.4284L0.2264 -2.4283L0.2251 -2.4218L0.2250 -2.4217L0.2244 -2.4184L0.2244 -2.4183L0.2234 -2.4118L0.2234 -2.4116L0.2229 -2.4083L0.2229 -2.4082L0.2222 -2.4015L0.2222 -2.4014L0.2219 -2.3981L0.2219 -2.3979L0.2216 -2.3912L0.2216 -2.3910L0.2215 -2.3877L0.2215 -2.3875L0.2215 -2.3807L0.2215 -2.3806L0.2216 -2.3772L0.2216 -2.3770L0.2219 -2.3703L0.2219 -2.3702L0.2222 -2.3668L0.2222 -2.3667L0.2229 -2.3600L0.2229 -2.3599L0.2234 -2.3566L0.2234 -2.3565L0.2244 -2.3499L0.2244 -2.3498L0.2250 -2.3465L0.2251 -2.3464L0.2264 -2.3399L0.2264 -2.3398L0.2272 -2.3366L0.2272 -2.3365L0.2289 -2.3302L0.2289 -2.3300L0.2298 -2.3269L0.2299 -2.3268L0.2319 -2.3206L0.2319 -2.3204L0.2330 -2.3174L0.2330 -2.3173L0.2353 -2.3112L0.2353 -2.3111L0.2366 -2.3081L0.2366 -2.3079L0.2392 -2.3020L0.2392 -2.3019L0.2406 -2.2990L0.2406 -2.2989L0.2435 -2.2931L0.2436 -2.2930L0.2450 -2.2901L0.2451 -2.2900L0.2482 -2.2844L0.2483 -2.2843L0.2499 -2.2815L0.2500 -2.2814L0.2534 -2.2759L0.2535 -2.2758L0.2552 -2.2731L0.2553 -2.2730L0.2589 -2.2677L0.2590 -2.2676L0.2609 -2.2650L0.2610 -2.2649L0.2649 -2.2598L0.2649 -2.2597L0.2669 -2.2572L0.2670 -2.2572L0.2712 -2.2522L0.2712 -2.2522L0.2734 -2.2497L0.2734 -2.2497L0.2778 -2.2449L0.2779 -2.2449L0.2801 -2.2426L0.2802 -2.2425L0.2848 -2.2380L0.2849 -2.2379L0.2872 -2.2357L0.2873 -2.2356L0.2921 -2.2313L0.2922 -2.2313L0.2947 -2.2292L0.2948 -2.2291L0.2998 -2.2250L0.2999 -2.2250L0.3024 -2.2230L0.3025 -2.2229L0.3077 -2.2191L0.3078 -2.2190L0.3105 -2.2172L0.3106 -2.2171L0.3160 -2.2135L0.3161 -2.2135L0.3188 -2.2117L0.3189 -2.2117L0.3245 -2.2083L0.3246 -2.2083L0.3274 -2.2067L0.3275 -2.2066L0.3333 -2.2036L0.3334 -2.2035L0.3363 -2.2020L0.3364 -2.2020L0.3423 -2.1992L0.3424 -2.1991L0.3454 -2.1978L0.3455 -2.1978L0.3516 -2.1952L0.3517 -2.1952L0.3547 -2.1940L0.3549 -2.1940L0.3611 -2.1917L0.3612 -2.1917L0.3643 -2.1906L0.3644 -2.1906L0.3708 -2.1886L0.3709 -2.1886L0.3741 -2.1877L0.3742 -2.1877L0.3806 -2.1860L0.3808 -2.1860L0.3840 -2.1853L0.3842 -2.1852L0.3907 -2.1839L0.3909 -2.1839L0.3942 -2.1833L0.3943 -2.1833L0.4010 -2.1823L0.4011 -2.1823L0.4045 -2.1818L0.4046 -2.1818L0.4114 -2.1811L0.4115 -2.1811L0.4149 -2.1809L0.4151 -2.1809L0.4219 -2.1805L0.4221 -2.1805L0.4255 -2.1804L0.4257 -2.1804L0.4326 -2.1804L0.4327 -2.1804L0.4362 -2.1805L0.4363 -2.1805L0.4432 -2.1809L0.4433 -2.1809L0.4468 -2.1811L0.4469 -2.1811L0.4537 -2.1818L0.4538 -2.1818L0.4572 -2.1823L0.4573 -2.1823L0.4640 -2.1833L0.4641 -2.1833L0.4674 -2.1839L0.4675 -2.1839L0.4741 -2.1852L0.4742 -2.1853L0.4775 -2.1860L0.4776 -2.1860L0.4841 -2.1877L0.4842 -2.1877L0.4874 -2.1886L0.4875 -2.1886L0.4939 -2.1906L0.4940 -2.1906L0.4971 -2.1917L0.4972 -2.1917L0.5034 -2.1940L0.5035 -2.1940L0.5066 -2.1952L0.5067 -2.1952L0.5128 -2.1978L0.5129 -2.1978L0.5159 -2.1991L0.5160 -2.1992L0.5219 -2.2020L0.5220 -2.2020L0.5249 -2.2035L0.5250 -2.2036L0.5308 -2.2066L0.5309 -2.2067L0.5337 -2.2083L0.5338 -2.2083L0.5394 -2.2117L0.5395 -2.2117L0.5422 -2.2135L0.5423 -2.2135L0.5477 -2.2171L0.5478 -2.2172L0.5504 -2.2190L0.5505 -2.2191L0.5558 -2.2229L0.5558 -2.2230L0.5584 -2.2250L0.5585 -2.2250L0.5635 -2.2291L0.5636 -2.2292L0.5660 -2.2313L0.5661 -2.2313L0.5709 -2.2356L0.5710 -2.2357L0.5734 -2.2379L0.5735 -2.2380L0.5781 -2.2425L0.5781 -2.2426L0.5804 -2.2449L0.5805 -2.2449L0.5848 -2.2497L0.5849 -2.2497L0.5870 -2.2522L0.5871 -2.2522L0.5913 -2.2572L0.5913 -2.2572L0.5933 -2.2597L0.5934 -2.2598L0.5973 -2.2649L0.5974 -2.2650L0.5993 -2.2676L0.5993 -2.2677L0.6030 -2.2730L0.6031 -2.2731L0.6048 -2.2758L0.6049 -2.2759L0.6083 -2.2814L0.6083 -2.2815L0.6100 -2.2843L0.6100 -2.2844L0.6132 -2.2900L0.6132 -2.2901L0.6147 -2.2930L0.6148 -2.2931L0.6176 -2.2989L0.6177 -2.2990L0.6190 -2.3019L0.6191 -2.3020L0.6217 -2.3079L0.6217 -2.3081L0.6229 -2.3111L0.6230 -2.3112L0.6253 -2.3173L0.6253 -2.3174L0.6264 -2.3204L0.6264 -2.3206L0.6284 -2.3268L0.6284 -2.3269L0.6293 -2.3300L0.6294 -2.3302L0.6311 -2.3365L0.6311 -2.3366L0.6318 -2.3398L0.6319 -2.3399L0.6332 -2.3464L0.6332 -2.3465L0.6338 -2.3498L0.6339 -2.3499L0.6349 -2.3565L0.6349 -2.3566L0.6353 -2.3599L0.6354 -2.3600L0.6361 -2.3667L0.6361 -2.3668L0.6363 -2.3702L0.6363 -2.3703L0.6367 -2.3770L0.6367 -2.3772L0.6368 -2.3806L0.6368 -2.3807L0.6368 -2.3875L0.6368 -2.3877L0.6367 -2.3910L0.6367 -2.3912L0.6363 -2.3979L0.6363 -2.3981L0.6361 -2.4014L0.6361 -2.4015L0.6354 -2.4082L0.6353 -2.4083L0.6349 -2.4116L0.6349 -2.4118L0.6339 -2.4183L0.6338 -2.4184L0.6332 -2.4217L0.6332 -2.4218L0.6319 -2.4283L0.6318 -2.4284L0.6311 -2.4316L0.6311 -2.4317L0.6294 -2.4381L0.6293 -2.4382L0.6284 -2.4413L0.6284 -2.4414L0.6264 -2.4476L0.6264 -2.4478L0.6253 -2.4508L0.6253 -2.4510L0.6230 -2.4570L0.6229 -2.4571L0.6217 -2.4602L0.6217 -2.4603L0.6191 -2.4662L0.6190 -2.4663L0.6177 -2.4692zM0.6268 -2.3875L0.6268 -2.3808L0.6267 -2.3775L0.6264 -2.3709L0.6261 -2.3677L0.6254 -2.3611L0.6250 -2.3579L0.6240 -2.3515L0.6234 -2.3484L0.6221 -2.3421L0.6214 -2.3390L0.6197 -2.3328L0.6188 -2.3298L0.6169 -2.3237L0.6159 -2.3207L0.6136 -2.3148L0.6125 -2.3119L0.6099 -2.3060L0.6086 -2.3032L0.6058 -2.2975L0.6044 -2.2948L0.6013 -2.2893L0.5998 -2.2866L0.5964 -2.2812L0.5947 -2.2787L0.5912 -2.2735L0.5893 -2.2710L0.5855 -2.2660L0.5836 -2.2636L0.5795 -2.2587L0.5775 -2.2564L0.5732 -2.2518L0.5710 -2.2496L0.5665 -2.2452L0.5642 -2.2430L0.5595 -2.2388L0.5572 -2.2368L0.5522 -2.2328L0.5498 -2.2309L0.5447 -2.2272L0.5421 -2.2254L0.5368 -2.2219L0.5342 -2.2202L0.5287 -2.2170L0.5260 -2.2154L0.5204 -2.2124L0.5175 -2.2110L0.5118 -2.2082L0.5089 -2.2070L0.5029 -2.2045L0.5000 -2.2033L0.4939 -2.2011L0.4909 -2.2001L0.4847 -2.1982L0.4816 -2.1974L0.4752 -2.1958L0.4721 -2.1950L0.4656 -2.1937L0.4624 -2.1932L0.4559 -2.1922L0.4526 -2.1918L0.4459 -2.1911L0.4427 -2.1909L0.4359 -2.1905L0.4326 -2.1904L0.4257 -2.1904L0.4224 -2.1905L0.4156 -2.1909L0.4123 -2.1911L0.4057 -2.1918L0.4024 -2.1922L0.3958 -2.1932L0.3927 -2.1937L0.3862 -2.1950L0.3831 -2.1958L0.3767 -2.1974L0.3736 -2.1982L0.3674 -2.2001L0.3644 -2.2011L0.3583 -2.2033L0.3553 -2.2045L0.3494 -2.2070L0.3465 -2.2082L0.3407 -2.2110L0.3379 -2.2124L0.3323 -2.2154L0.3296 -2.2170L0.3241 -2.2202L0.3215 -2.2219L0.3162 -2.2254L0.3136 -2.2272L0.3085 -2.2309L0.3060 -2.2328L0.3011 -2.2368L0.2988 -2.2388L0.2940 -2.2430L0.2918 -2.2452L0.2873 -2.2496L0.2851 -2.2518L0.2808 -2.2564L0.2788 -2.2587L0.2747 -2.2636L0.2728 -2.2660L0.2689 -2.2710L0.2671 -2.2735L0.2635 -2.2787L0.2618 -2.2812L0.2585 -2.2866L0.2569 -2.2893L0.2539 -2.2948L0.2524 -2.2975L0.2496 -2.3032L0.2483 -2.3060L0.2458 -2.3119L0.2446 -2.3148L0.2424 -2.3207L0.2414 -2.3237L0.2394 -2.3298L0.2386 -2.3328L0.2369 -2.3390L0.2362 -2.3421L0.2349 -2.3484L0.2343 -2.3515L0.2333 -2.3579L0.2329 -2.3611L0.2322 -2.3677L0.2319 -2.3709L0.2316 -2.3775L0.2315 -2.3808L0.2315 -2.3875L0.2316 -2.3907L0.2319 -2.3973L0.2322 -2.4006L0.2329 -2.4071L0.2333 -2.4103L0.2343 -2.4167L0.2349 -2.4198L0.2362 -2.4262L0.2369 -2.4292L0.2386 -2.4354L0.2394 -2.4385L0.2414 -2.4445L0.2424 -2.4475L0.2446 -2.4535L0.2458 -2.4563L0.2483 -2.4622L0.2496 -2.4650L0.2524 -2.4707L0.2539 -2.4734L0.2569 -2.4789L0.2585 -2.4816L0.2618 -2.4870L0.2635 -2.4896L0.2671 -2.4947L0.2689 -2.4972L0.2728 -2.5023L0.2747 -2.5047L0.2788 -2.5095L0.2808 -2.5118L0.2851 -2.5164L0.2873 -2.5186L0.2918 -2.5231L0.2940 -2.5252L0.2988 -2.5294L0.3011 -2.5314L0.3060 -2.5354L0.3085 -2.5373L0.3136 -2.5410L0.3162 -2.5428L0.3215 -2.5463L0.3241 -2.5480L0.3296 -2.5513L0.3323 -2.5528L0.3379 -2.5558L0.3407 -2.5572L0.3465 -2.5600L0.3494 -2.5613L0.3553 -2.5637L0.3583 -2.5649L0.3644 -2.5671L0.3674 -2.5681L0.3736 -2.5700L0.3767 -2.5708L0.3831 -2.5725L0.3862 -2.5732L0.3927 -2.5745L0.3958 -2.5750L0.4024 -2.5760L0.4057 -2.5764L0.4123 -2.5771L0.4156 -2.5774L0.4224 -2.5777L0.4257 -2.5778L0.4326 -2.5778L0.4359 -2.5777L0.4427 -2.5774L0.4459 -2.5771L0.4526 -2.5764L0.4559 -2.5760L0.4624 -2.5750L0.4656 -2.5745L0.4721 -2.5732L0.4752 -2.5725L0.4816 -2.5708L0.4847 -2.5700L0.4909 -2.5681L0.4939 -2.5671L0.5000 -2.5649L0.5029 -2.5637L0.5089 -2.5613L0.5118 -2.5600L0.5175 -2.5572L0.5204 -2.5558L0.5260 -2.5528L0.5287 -2.5513L0.5342 -2.5480L0.5368 -2.5463L0.5421 -2.5428L0.5447 -2.5410L0.5498 -2.5373L0.5522 -2.5354L0.5572 -2.5314L0.5595 -2.5294L0.5642 -2.5252L0.5665 -2.5231L0.5710 -2.5186L0.5732 -2.5164L0.5775 -2.5118L0.5795 -2.5095L0.5836 -2.5047L0.5855 -2.5023L0.5893 -2.4972L0.5912 -2.4947L0.5947 -2.4896L0.5964 -2.4870L0.5998 -2.4816L0.6013 -2.4789L0.6044 -2.4734L0.6058 -2.4707L0.6086 -2.4650L0.6099 -2.4622L0.6125 -2.4563L0.6136 -2.4535L0.6159 -2.4475L0.6169 -2.4445L0.6188 -2.4385L0.6197 -2.4354L0.6214 -2.4292L0.6221 -2.4262L0.6234 -2.4198L0.6240 -2.4167L0.6250 -2.4103L0.6254 -2.4071L0.6261 -2.4006L0.6264 -2.3973L0.6267 -2.3907L0.6268 -2.3875z" fill="param(fill)" fill-opacity="param(fill-opacity)" stroke="param(outline)" stroke-opacity="param(outline-opacity)" stroke-width="param(outline-width)"/>
</g>
</defs>
<path class="C2" d="M0.5721 -2.5273L0.4281 -2.4086L0.2871 -2.5271L0.2840 -2.5293L0.2805 -2.5308L0.2768 -2.5317L0.2731 -2.5318L0.2693 -2.5312L0.2658 -2.5300L0.2625 -2.5280L0.2597 -2.5256L0.2574 -2.5226L0.2556 -2.5192L0.2546 -2.5156L0.2542 -2.5118L0.2542 -2.2572L0.2546 -2.2532L0.2559 -2.2493L0.2579 -2.2457L0.2606 -2.2426L0.2638 -2.2402L0.2675 -2.2384L0.2715 -2.2374L0.2756 -2.2373L0.2796 -2.2380L0.2834 -2.2395L0.2869 -2.2417L0.4281 -2.3569L0.5723 -2.2416L0.5757 -2.2394L0.5795 -2.2380L0.5836 -2.2373L0.5876 -2.2375L0.5916 -2.2384L0.5953 -2.2402L0.5985 -2.2427L0.6012 -2.2458L0.6032 -2.2493L0.6044 -2.2532L0.6048 -2.2572L0.6048 -2.5118L0.6044 -2.5156L0.6034 -2.5192L0.6017 -2.5225L0.5994 -2.5255L0.5966 -2.5280L0.5933 -2.5299L0.5898 -2.5312L0.5861 -2.5318L0.5823 -2.5317L0.5786 -2.5309L0.5752 -2.5294L0.5721 -2.5273zM0.5648 -2.4694L0.5648 -2.2988L0.4597 -2.3829L0.5648 -2.4694zM0.2942 -2.2994L0.2942 -2.4689L0.3966 -2.3829L0.2942 -2.2994z"/>
</g>
<use xlink:href="#L1"/>
<use xlink:href="#L2"/>
</svg>
