<?xml version="1.0" encoding="UTF-8" standalone="no"?>
<!DOCTYPE svg PUBLIC "-//W3C//DTD SVG 1.1//EN" "http://www.w3.org/Graphics/SVG/1.1/DTD/svg11.dtd">
<svg xmlns="http://www.w3.org/2000/svg" xmlns:xlink="http://www.w3.org/1999/xlink" viewBox="0.238528693893514 -2.5748229697151 0.381624272149053 0.379602649006625" enable-background="new" shape-rendering="auto">
<defs>
<filter id="T">
  <feBlend mode="normal" in2="BackgroundImage" in="SourceGraphic"/>
</filter>
</defs>
<g>
<title>kaatupump</title>
<style type="text/css"><![CDATA[.C1{fill:#ffffff;stroke:#ff0000;stroke-width:0.000346669085851;stroke-antialiasing:true}]]></style>
<path class="C1" d="M0.6102 -2.5648L0.2485 -2.5648L0.2485 -2.2052L0.6102 -2.2052L0.6102 -2.5648z" />
<style type="text/css"><![CDATA[.C2{fill:none;stroke:#ff0000;stroke-width:0.000346669085851;stroke-antialiasing:true}]]></style>
<path class="C2" d="M0.3495 -2.2282L0.3491 -2.5134L0.4712 -2.5134L0.4825 -2.5114L0.4947 -2.5066L0.5073 -2.4989L0.5168 -2.4897L0.5255 -2.4785L0.5329 -2.4625L0.5359 -2.4466L0.5359 -2.4277L0.5333 -2.4136L0.5281 -2.3972L0.5220 -2.3856L0.5125 -2.3744L0.5021 -2.3676L0.4895 -2.3618L0.4769 -2.3589L0.4625 -2.3580L0.3495 -2.3580" />
<defs>
<g id="L1">
<style type="text/css"><![CDATA[.C3{fill:#ff0000;stroke:none}]]></style>
<path class="C3" d="M0.5524 -2.4076L0.5530 -2.4100L0.5556 -2.4240L0.5559 -2.4277L0.5559 -2.4466L0.5556 -2.4503L0.5526 -2.4663L0.5511 -2.4709L0.5437 -2.4869L0.5413 -2.4908L0.5326 -2.5020L0.5307 -2.5041L0.5211 -2.5133L0.5177 -2.5159L0.5051 -2.5236L0.5021 -2.5252L0.4899 -2.5300L0.4859 -2.5312L0.4746 -2.5331L0.4712 -2.5334L0.3491 -2.5334L0.3452 -2.5330L0.3414 -2.5319L0.3380 -2.5300L0.3350 -2.5275L0.3325 -2.5245L0.3306 -2.5210L0.3295 -2.5173L0.3291 -2.5133L0.3295 -2.2282L0.3299 -2.2243L0.3311 -2.2205L0.3329 -2.2171L0.3354 -2.2140L0.3385 -2.2115L0.3419 -2.2097L0.3457 -2.2086L0.3496 -2.2082L0.3535 -2.2086L0.3572 -2.2097L0.3607 -2.2116L0.3637 -2.2141L0.3662 -2.2171L0.3680 -2.2206L0.3692 -2.2243L0.3695 -2.2282L0.3694 -2.3380L0.4625 -2.3380L0.4639 -2.3380L0.4782 -2.3390L0.4813 -2.3394L0.4939 -2.3423L0.4978 -2.3437L0.5104 -2.3495L0.5130 -2.3509L0.5234 -2.3576L0.5277 -2.3614L0.5372 -2.3725L0.5398 -2.3763L0.5458 -2.3879L0.5472 -2.3911L0.5524 -2.4076zM0.5139 -2.4185L0.5096 -2.4049L0.5054 -2.3968L0.4992 -2.3896L0.4924 -2.3852L0.4830 -2.3809L0.4739 -2.3788L0.4618 -2.3780L0.3693 -2.3780L0.3691 -2.4934L0.4695 -2.4934L0.4771 -2.4921L0.4857 -2.4887L0.4950 -2.4829L0.5019 -2.4762L0.5083 -2.4680L0.5137 -2.4564L0.5159 -2.4447L0.5159 -2.4295L0.5139 -2.4185z" fill="param(fill)" fill-opacity="param(fill-opacity)" stroke="param(outline)" stroke-opacity="param(outline-opacity)" stroke-width="param(outline-width)"/>
</g>
<g id="L2">
<path class="C3" d="M0.6202 -2.2052L0.6202 -2.5648L0.6200 -2.5668L0.6194 -2.5686L0.6185 -2.5704L0.6172 -2.5719L0.6157 -2.5731L0.6140 -2.5741L0.6121 -2.5746L0.6102 -2.5748L0.2485 -2.5748L0.2466 -2.5746L0.2447 -2.5741L0.2430 -2.5731L0.2415 -2.5719L0.2402 -2.5704L0.2393 -2.5686L0.2387 -2.5668L0.2385 -2.5648L0.2385 -2.2052L0.2387 -2.2033L0.2393 -2.2014L0.2402 -2.1997L0.2415 -2.1981L0.2430 -2.1969L0.2447 -2.1960L0.2466 -2.1954L0.2485 -2.1952L0.6102 -2.1952L0.6121 -2.1954L0.6140 -2.1960L0.6157 -2.1969L0.6172 -2.1981L0.6185 -2.1997L0.6194 -2.2014L0.6200 -2.2033L0.6202 -2.2052zM0.6002 -2.2152L0.2585 -2.2152L0.2585 -2.5548L0.6002 -2.5548L0.6002 -2.2152z" fill="param(fill)" fill-opacity="param(fill-opacity)" stroke="param(outline)" stroke-opacity="param(outline-opacity)" stroke-width="param(outline-width)"/>
</g>
</defs>
</g>
<use xlink:href="#L1"/>
<use xlink:href="#L2"/>
</svg>
