<?xml version="1.0" encoding="UTF-8" standalone="no"?>
<!DOCTYPE svg PUBLIC "-//W3C//DTD SVG 1.1//EN" "http://www.w3.org/Graphics/SVG/1.1/DTD/svg11.dtd">
<svg xmlns="http://www.w3.org/2000/svg" xmlns:xlink="http://www.w3.org/1999/xlink" viewBox="0.254222513035813 -2.5317964680452 0.350574779010023 0.294508335689806" enable-background="new" shape-rendering="auto">
<defs>
<filter id="T">
  <feBlend mode="normal" in2="BackgroundImage" in="SourceGraphic"/>
</filter>
</defs>
<g>
<title>kinkyu_syadanben</title>
<style type="text/css"><![CDATA[.C1{fill:#ffffff;stroke:none}]]></style>
<path class="C1" d="M0.4280 -2.3826L0.2742 -2.5118L0.2742 -2.2572L0.4280 -2.3826z" />
<path class="C1" d="M0.4280 -2.3826L0.5848 -2.2572L0.5848 -2.5118L0.4280 -2.3826z" />
<defs>
<g id="L1">
<style type="text/css"><![CDATA[.C2{fill:#ff0000;stroke:none}]]></style>
<path class="C2" d="M0.5721 -2.5273L0.4281 -2.4086L0.2871 -2.5271L0.2840 -2.5293L0.2805 -2.5308L0.2768 -2.5317L0.2731 -2.5318L0.2693 -2.5312L0.2658 -2.5300L0.2625 -2.5280L0.2597 -2.5256L0.2574 -2.5226L0.2556 -2.5192L0.2546 -2.5156L0.2542 -2.5118L0.2542 -2.2572L0.2546 -2.2532L0.2559 -2.2493L0.2579 -2.2457L0.2606 -2.2426L0.2638 -2.2402L0.2675 -2.2384L0.2715 -2.2374L0.2756 -2.2373L0.2796 -2.2380L0.2834 -2.2395L0.2869 -2.2417L0.4281 -2.3569L0.5723 -2.2416L0.5757 -2.2394L0.5795 -2.2380L0.5836 -2.2373L0.5876 -2.2375L0.5916 -2.2384L0.5953 -2.2402L0.5985 -2.2427L0.6012 -2.2458L0.6032 -2.2493L0.6044 -2.2532L0.6048 -2.2572L0.6048 -2.5118L0.6044 -2.5156L0.6034 -2.5192L0.6017 -2.5225L0.5994 -2.5255L0.5966 -2.5280L0.5933 -2.5299L0.5898 -2.5312L0.5861 -2.5318L0.5823 -2.5317L0.5786 -2.5309L0.5752 -2.5294L0.5721 -2.5273zM0.5648 -2.4694L0.5648 -2.2988L0.4597 -2.3829L0.5648 -2.4694zM0.2942 -2.2994L0.2942 -2.4689L0.3966 -2.3829L0.2942 -2.2994z" fill="param(fill)" fill-opacity="param(fill-opacity)" stroke="param(outline)" stroke-opacity="param(outline-opacity)" stroke-width="param(outline-width)"/>
</g>
<g id="L2">
<style type="text/css"><![CDATA[.C3{fill:#ffffff;stroke:#ff1900;stroke-width:0.000268957384192;stroke-antialiasing:true}]]></style>
<path class="C3" d="M0.4852 -2.4644A0.0998,0.0998 0 0,0 0.3721,-2.2998A0.0998,0.0998 0 0,0 0.4852,-2.4644z" fill="param(fill)" fill-opacity="param(fill-opacity)" stroke="param(outline)" stroke-opacity="param(outline-opacity)" stroke-width="param(outline-width)"/>
</g>
<g id="L3">
<style type="text/css"><![CDATA[.C4{fill:none;stroke:#ff1900;stroke-width:0.000268957384192;stroke-antialiasing:true}]]></style>
<path class="C4" d="M0.4758 -2.4140A0.0569,0.0569 0 0,0 0.3815,-2.3502A0.0569,0.0569 0 0,0 0.4758,-2.4140z" fill="param(fill)" fill-opacity="param(fill-opacity)" stroke="param(outline)" stroke-opacity="param(outline-opacity)" stroke-width="param(outline-width)"/>
</g>
<g id="L4">
<path class="C2" d="M0.4909 -2.4726L0.4839 -2.4770L0.4767 -2.4809L0.4692 -2.4842L0.4614 -2.4869L0.4535 -2.4891L0.4454 -2.4906L0.4373 -2.4916L0.4291 -2.4919L0.4208 -2.4916L0.4127 -2.4908L0.4046 -2.4893L0.3967 -2.4872L0.3889 -2.4845L0.3814 -2.4812L0.3741 -2.4774L0.3671 -2.4731L0.3605 -2.4682L0.3542 -2.4629L0.3484 -2.4571L0.3430 -2.4509L0.3381 -2.4443L0.3337 -2.4373L0.3299 -2.4301L0.3265 -2.4226L0.3238 -2.4148L0.3216 -2.4069L0.3201 -2.3988L0.3191 -2.3907L0.3188 -2.3825L0.3191 -2.3743L0.3200 -2.3661L0.3215 -2.3580L0.3236 -2.3501L0.3263 -2.3423L0.3295 -2.3348L0.3333 -2.3275L0.3377 -2.3205L0.3425 -2.3139L0.3479 -2.3077L0.3536 -2.3018L0.3598 -2.2964L0.3664 -2.2915L0.3734 -2.2871L0.3806 -2.2833L0.3881 -2.2800L0.3959 -2.2772L0.4038 -2.2751L0.4119 -2.2735L0.4200 -2.2726L0.4282 -2.2722L0.4365 -2.2725L0.4446 -2.2734L0.4527 -2.2749L0.4606 -2.2770L0.4684 -2.2797L0.4759 -2.2829L0.4832 -2.2867L0.4902 -2.2911L0.4968 -2.2959L0.5031 -2.3013L0.5089 -2.3071L0.5143 -2.3133L0.5192 -2.3199L0.5236 -2.3268L0.5274 -2.3341L0.5308 -2.3416L0.5335 -2.3493L0.5357 -2.3572L0.5372 -2.3653L0.5382 -2.3735L0.5385 -2.3817L0.5382 -2.3899L0.5373 -2.3980L0.5358 -2.4061L0.5337 -2.4141L0.5310 -2.4218L0.5278 -2.4294L0.5240 -2.4366L0.5196 -2.4436L0.5148 -2.4502L0.5094 -2.4565L0.5037 -2.4623L0.4975 -2.4677L0.4909 -2.4726zM0.4795 -2.4561L0.4855 -2.4517L0.4910 -2.4467L0.4962 -2.4414L0.5008 -2.4356L0.5050 -2.4294L0.5086 -2.4230L0.5117 -2.4162L0.5143 -2.4093L0.5162 -2.4021L0.5176 -2.3948L0.5183 -2.3874L0.5185 -2.3800L0.5180 -2.3726L0.5169 -2.3652L0.5152 -2.3580L0.5129 -2.3509L0.5101 -2.3441L0.5066 -2.3375L0.5027 -2.3312L0.4982 -2.3253L0.4933 -2.3197L0.4879 -2.3146L0.4822 -2.3099L0.4760 -2.3057L0.4696 -2.3021L0.4628 -2.2990L0.4558 -2.2964L0.4487 -2.2945L0.4414 -2.2931L0.4340 -2.2924L0.4266 -2.2923L0.4191 -2.2927L0.4118 -2.2938L0.4046 -2.2955L0.3975 -2.2978L0.3906 -2.3007L0.3841 -2.3041L0.3778 -2.3080L0.3718 -2.3125L0.3663 -2.3174L0.3611 -2.3228L0.3565 -2.3286L0.3523 -2.3347L0.3487 -2.3412L0.3456 -2.3479L0.3430 -2.3549L0.3411 -2.3621L0.3397 -2.3694L0.3390 -2.3767L0.3388 -2.3842L0.3393 -2.3916L0.3404 -2.3989L0.3421 -2.4062L0.3444 -2.4132L0.3472 -2.4201L0.3507 -2.4267L0.3546 -2.4330L0.3591 -2.4389L0.3640 -2.4445L0.3694 -2.4496L0.3751 -2.4542L0.3813 -2.4584L0.3877 -2.4621L0.3945 -2.4652L0.4015 -2.4677L0.4086 -2.4697L0.4159 -2.4710L0.4233 -2.4718L0.4307 -2.4719L0.4382 -2.4714L0.4455 -2.4703L0.4527 -2.4686L0.4598 -2.4663L0.4667 -2.4635L0.4732 -2.4601L0.4795 -2.4561z" fill="param(fill)" fill-opacity="param(fill-opacity)" stroke="param(outline)" stroke-opacity="param(outline-opacity)" stroke-width="param(outline-width)"/>
</g>
<g id="L5">
<path class="C2" d="M0.4841 -2.4196L0.4803 -2.4247L0.4760 -2.4294L0.4713 -2.4337L0.4662 -2.4375L0.4607 -2.4408L0.4550 -2.4436L0.4490 -2.4458L0.4429 -2.4475L0.4366 -2.4485L0.4303 -2.4490L0.4239 -2.4488L0.4176 -2.4481L0.4113 -2.4467L0.4053 -2.4448L0.3994 -2.4423L0.3938 -2.4392L0.3885 -2.4357L0.3836 -2.4316L0.3791 -2.4271L0.3751 -2.4222L0.3715 -2.4169L0.3684 -2.4113L0.3659 -2.4055L0.3640 -2.3994L0.3626 -2.3932L0.3619 -2.3869L0.3617 -2.3805L0.3622 -2.3741L0.3632 -2.3679L0.3649 -2.3617L0.3671 -2.3557L0.3699 -2.3500L0.3732 -2.3446L0.3770 -2.3395L0.3813 -2.3347L0.3860 -2.3305L0.3911 -2.3266L0.3966 -2.3233L0.4023 -2.3205L0.4083 -2.3183L0.4144 -2.3167L0.4207 -2.3156L0.4270 -2.3151L0.4334 -2.3153L0.4397 -2.3161L0.4460 -2.3174L0.4520 -2.3193L0.4579 -2.3219L0.4635 -2.3249L0.4688 -2.3285L0.4737 -2.3325L0.4782 -2.3370L0.4822 -2.3420L0.4858 -2.3472L0.4889 -2.3528L0.4914 -2.3587L0.4933 -2.3647L0.4947 -2.3710L0.4954 -2.3773L0.4956 -2.3837L0.4951 -2.3900L0.4941 -2.3963L0.4924 -2.4025L0.4902 -2.4084L0.4874 -2.4142L0.4841 -2.4196zM0.4675 -2.4084L0.4702 -2.4039L0.4724 -2.3991L0.4740 -2.3941L0.4751 -2.3889L0.4756 -2.3837L0.4755 -2.3784L0.4747 -2.3732L0.4735 -2.3681L0.4716 -2.3632L0.4692 -2.3585L0.4663 -2.3541L0.4630 -2.3500L0.4591 -2.3464L0.4550 -2.3432L0.4504 -2.3405L0.4456 -2.3383L0.4406 -2.3367L0.4355 -2.3356L0.4302 -2.3352L0.4250 -2.3353L0.4198 -2.3360L0.4147 -2.3373L0.4097 -2.3391L0.4050 -2.3415L0.4006 -2.3444L0.3966 -2.3478L0.3930 -2.3516L0.3898 -2.3558L0.3871 -2.3603L0.3849 -2.3651L0.3833 -2.3701L0.3822 -2.3752L0.3817 -2.3805L0.3818 -2.3857L0.3826 -2.3910L0.3838 -2.3961L0.3857 -2.4010L0.3881 -2.4057L0.3910 -2.4101L0.3944 -2.4141L0.3982 -2.4178L0.4023 -2.4210L0.4069 -2.4237L0.4117 -2.4258L0.4167 -2.4275L0.4218 -2.4285L0.4271 -2.4290L0.4323 -2.4289L0.4375 -2.4282L0.4426 -2.4269L0.4476 -2.4250L0.4523 -2.4226L0.4567 -2.4197L0.4607 -2.4164L0.4643 -2.4126L0.4675 -2.4084z" fill="param(fill)" fill-opacity="param(fill-opacity)" stroke="param(outline)" stroke-opacity="param(outline-opacity)" stroke-width="param(outline-width)"/>
</g>
</defs>
</g>
<use xlink:href="#L1"/>
<use xlink:href="#L2"/>
<use xlink:href="#L3"/>
<use xlink:href="#L4"/>
<use xlink:href="#L5"/>
</svg>
