<?xml version="1.0" encoding="UTF-8" standalone="no"?>
<!DOCTYPE svg PUBLIC "-//W3C//DTD SVG 1.1//EN" "http://www.w3.org/Graphics/SVG/1.1/DTD/svg11.dtd">
<svg xmlns="http://www.w3.org/2000/svg" xmlns:xlink="http://www.w3.org/1999/xlink" viewBox="0.216490066225166 -2.59278145695364 0.425298013245033 0.417350993377482" enable-background="new" shape-rendering="auto">
<defs>
<filter id="T">
  <feBlend mode="normal" in2="BackgroundImage" in="SourceGraphic"/>
</filter>
</defs>
<g>
<title>kyusui_sikiriben_stop</title>
<style type="text/css"><![CDATA[.C1{fill:none;stroke:#ff0080;stroke-width:0.000500000000000;stroke-antialiasing:true;stroke-linecap:round;stroke-linejoin:round}]]></style>
<path class="C1" d="M0.5848 -2.5118L0.4280 -2.3826L0.2742 -2.5118L0.2742 -2.2572L0.4280 -2.3826L0.5848 -2.2572L0.5848 -2.5118z" />
<style type="text/css"><![CDATA[.C2{fill:#ffffff;stroke:#ff0080;stroke-width:0.000500000000000;stroke-antialiasing:true;stroke-linecap:round;stroke-linejoin:round}]]></style>
<path class="C2" d="M0.2265 -2.3841C0.2265,-2.2748 0.3177,-2.1854 0.4291,-2.1854C0.5406,-2.1854 0.6318,-2.2748 0.6318,-2.3841C0.6318,-2.4934 0.5406,-2.5828 0.4291,-2.5828C0.3177,-2.5828 0.2265,-2.4934 0.2265,-2.3841z" />
<defs>
<g id="L1">
<style type="text/css"><![CDATA[.C3{fill:#ff0080;stroke:none}]]></style>
<path class="C3" d="M0.5149 -2.5750L0.5147 -2.5751L0.5086 -2.5776L0.5084 -2.5777L0.5054 -2.5789L0.5051 -2.5790L0.4989 -2.5812L0.4987 -2.5813L0.4956 -2.5823L0.4953 -2.5824L0.4890 -2.5843L0.4888 -2.5844L0.4856 -2.5853L0.4853 -2.5854L0.4789 -2.5870L0.4786 -2.5871L0.4754 -2.5878L0.4751 -2.5879L0.4685 -2.5892L0.4683 -2.5892L0.4650 -2.5898L0.4647 -2.5899L0.4580 -2.5909L0.4578 -2.5909L0.4544 -2.5913L0.4542 -2.5914L0.4474 -2.5920L0.4471 -2.5921L0.4437 -2.5923L0.4435 -2.5923L0.4366 -2.5927L0.4363 -2.5927L0.4329 -2.5928L0.4326 -2.5928L0.4257 -2.5928L0.4254 -2.5928L0.4219 -2.5927L0.4217 -2.5927L0.4148 -2.5923L0.4146 -2.5923L0.4111 -2.5921L0.4109 -2.5920L0.4041 -2.5914L0.4039 -2.5913L0.4005 -2.5909L0.4002 -2.5909L0.3935 -2.5899L0.3933 -2.5898L0.3900 -2.5892L0.3897 -2.5892L0.3832 -2.5879L0.3829 -2.5878L0.3797 -2.5871L0.3794 -2.5870L0.3730 -2.5854L0.3727 -2.5853L0.3695 -2.5844L0.3693 -2.5843L0.3630 -2.5824L0.3627 -2.5823L0.3596 -2.5813L0.3594 -2.5812L0.3532 -2.5790L0.3529 -2.5789L0.3499 -2.5777L0.3496 -2.5776L0.3436 -2.5751L0.3434 -2.5750L0.3404 -2.5736L0.3402 -2.5735L0.3342 -2.5707L0.3340 -2.5706L0.3311 -2.5692L0.3309 -2.5691L0.3223 -2.5645L0.3219 -2.5642L0.3163 -2.5609L0.3159 -2.5606L0.3051 -2.5535L0.3047 -2.5532L0.2995 -2.5494L0.2991 -2.5491L0.2891 -2.5410L0.2888 -2.5407L0.2840 -2.5364L0.2836 -2.5361L0.2744 -2.5271L0.2741 -2.5267L0.2697 -2.5220L0.2694 -2.5216L0.2611 -2.5118L0.2608 -2.5115L0.2569 -2.5063L0.2566 -2.5060L0.2512 -2.4980L0.2510 -2.4978L0.2493 -2.4951L0.2491 -2.4949L0.2457 -2.4895L0.2456 -2.4893L0.2440 -2.4865L0.2439 -2.4863L0.2407 -2.4806L0.2406 -2.4804L0.2391 -2.4776L0.2390 -2.4774L0.2362 -2.4716L0.2361 -2.4714L0.2347 -2.4684L0.2346 -2.4682L0.2320 -2.4623L0.2319 -2.4620L0.2307 -2.4590L0.2306 -2.4588L0.2283 -2.4527L0.2283 -2.4525L0.2272 -2.4494L0.2271 -2.4492L0.2251 -2.4430L0.2250 -2.4427L0.2241 -2.4396L0.2241 -2.4393L0.2224 -2.4330L0.2223 -2.4327L0.2216 -2.4295L0.2215 -2.4293L0.2202 -2.4228L0.2201 -2.4226L0.2195 -2.4193L0.2195 -2.4191L0.2184 -2.4125L0.2184 -2.4123L0.2180 -2.4090L0.2179 -2.4087L0.2172 -2.4021L0.2172 -2.4018L0.2170 -2.3984L0.2169 -2.3982L0.2166 -2.3914L0.2166 -2.3912L0.2165 -2.3878L0.2165 -2.3875L0.2165 -2.3807L0.2165 -2.3804L0.2166 -2.3770L0.2166 -2.3768L0.2169 -2.3700L0.2170 -2.3698L0.2172 -2.3664L0.2172 -2.3662L0.2179 -2.3595L0.2180 -2.3592L0.2184 -2.3559L0.2184 -2.3557L0.2195 -2.3491L0.2195 -2.3489L0.2201 -2.3456L0.2202 -2.3454L0.2215 -2.3389L0.2216 -2.3387L0.2223 -2.3355L0.2224 -2.3352L0.2241 -2.3289L0.2241 -2.3286L0.2250 -2.3255L0.2251 -2.3253L0.2271 -2.3190L0.2272 -2.3188L0.2283 -2.3157L0.2283 -2.3155L0.2306 -2.3094L0.2307 -2.3092L0.2319 -2.3062L0.2320 -2.3060L0.2346 -2.3000L0.2347 -2.2998L0.2361 -2.2969L0.2362 -2.2966L0.2390 -2.2909L0.2391 -2.2906L0.2406 -2.2878L0.2407 -2.2876L0.2439 -2.2819L0.2440 -2.2817L0.2456 -2.2789L0.2457 -2.2787L0.2491 -2.2733L0.2493 -2.2731L0.2510 -2.2704L0.2512 -2.2702L0.2566 -2.2623L0.2569 -2.2619L0.2608 -2.2568L0.2611 -2.2564L0.2694 -2.2466L0.2697 -2.2462L0.2741 -2.2415L0.2744 -2.2412L0.2836 -2.2321L0.2840 -2.2318L0.2888 -2.2275L0.2891 -2.2272L0.2991 -2.2191L0.2995 -2.2188L0.3047 -2.2150L0.3051 -2.2147L0.3159 -2.2076L0.3163 -2.2073L0.3219 -2.2040L0.3223 -2.2037L0.3309 -2.1991L0.3311 -2.1990L0.3340 -2.1976L0.3342 -2.1975L0.3402 -2.1947L0.3404 -2.1946L0.3434 -2.1932L0.3436 -2.1931L0.3496 -2.1906L0.3499 -2.1905L0.3529 -2.1893L0.3532 -2.1892L0.3594 -2.1870L0.3596 -2.1869L0.3627 -2.1859L0.3630 -2.1858L0.3693 -2.1839L0.3695 -2.1838L0.3727 -2.1829L0.3730 -2.1828L0.3794 -2.1812L0.3797 -2.1811L0.3829 -2.1804L0.3832 -2.1803L0.3897 -2.1790L0.3900 -2.1790L0.3933 -2.1784L0.3935 -2.1783L0.4002 -2.1773L0.4005 -2.1773L0.4039 -2.1769L0.4041 -2.1769L0.4109 -2.1762L0.4111 -2.1761L0.4146 -2.1759L0.4148 -2.1759L0.4217 -2.1755L0.4219 -2.1755L0.4254 -2.1754L0.4257 -2.1754L0.4326 -2.1754L0.4329 -2.1754L0.4363 -2.1755L0.4366 -2.1755L0.4435 -2.1759L0.4437 -2.1759L0.4471 -2.1761L0.4474 -2.1762L0.4542 -2.1769L0.4544 -2.1769L0.4578 -2.1773L0.4580 -2.1773L0.4647 -2.1783L0.4650 -2.1784L0.4683 -2.1790L0.4685 -2.1790L0.4751 -2.1803L0.4754 -2.1804L0.4786 -2.1811L0.4789 -2.1812L0.4853 -2.1828L0.4856 -2.1829L0.4888 -2.1838L0.4890 -2.1839L0.4953 -2.1858L0.4956 -2.1859L0.4987 -2.1869L0.4989 -2.1870L0.5051 -2.1892L0.5054 -2.1893L0.5084 -2.1905L0.5086 -2.1906L0.5147 -2.1931L0.5149 -2.1932L0.5179 -2.1946L0.5181 -2.1947L0.5240 -2.1975L0.5242 -2.1976L0.5272 -2.1990L0.5274 -2.1991L0.5360 -2.2037L0.5364 -2.2040L0.5420 -2.2073L0.5424 -2.2076L0.5532 -2.2147L0.5536 -2.2150L0.5588 -2.2188L0.5591 -2.2191L0.5692 -2.2272L0.5695 -2.2275L0.5743 -2.2318L0.5747 -2.2321L0.5839 -2.2412L0.5842 -2.2415L0.5886 -2.2462L0.5889 -2.2466L0.5971 -2.2564L0.5974 -2.2568L0.6014 -2.2619L0.6016 -2.2623L0.6071 -2.2702L0.6072 -2.2704L0.6090 -2.2731L0.6091 -2.2733L0.6125 -2.2787L0.6127 -2.2789L0.6143 -2.2817L0.6144 -2.2819L0.6175 -2.2876L0.6177 -2.2878L0.6192 -2.2906L0.6193 -2.2909L0.6221 -2.2966L0.6222 -2.2969L0.6236 -2.2998L0.6237 -2.3000L0.6263 -2.3060L0.6264 -2.3062L0.6276 -2.3092L0.6277 -2.3094L0.6299 -2.3155L0.6300 -2.3157L0.6311 -2.3188L0.6312 -2.3190L0.6332 -2.3253L0.6332 -2.3255L0.6341 -2.3286L0.6342 -2.3289L0.6359 -2.3352L0.6359 -2.3355L0.6367 -2.3387L0.6368 -2.3389L0.6381 -2.3454L0.6382 -2.3456L0.6388 -2.3489L0.6388 -2.3491L0.6398 -2.3557L0.6399 -2.3559L0.6403 -2.3592L0.6403 -2.3595L0.6410 -2.3662L0.6411 -2.3664L0.6413 -2.3698L0.6413 -2.3700L0.6417 -2.3768L0.6417 -2.3770L0.6418 -2.3804L0.6418 -2.3807L0.6418 -2.3875L0.6418 -2.3878L0.6417 -2.3912L0.6417 -2.3914L0.6413 -2.3982L0.6413 -2.3984L0.6411 -2.4018L0.6410 -2.4021L0.6403 -2.4087L0.6403 -2.4090L0.6399 -2.4123L0.6398 -2.4125L0.6388 -2.4191L0.6388 -2.4193L0.6382 -2.4226L0.6381 -2.4228L0.6368 -2.4293L0.6367 -2.4295L0.6359 -2.4327L0.6359 -2.4330L0.6342 -2.4393L0.6341 -2.4396L0.6332 -2.4427L0.6332 -2.4430L0.6312 -2.4492L0.6311 -2.4494L0.6300 -2.4525L0.6299 -2.4527L0.6277 -2.4588L0.6276 -2.4590L0.6264 -2.4620L0.6263 -2.4623L0.6237 -2.4682L0.6236 -2.4684L0.6222 -2.4714L0.6221 -2.4716L0.6193 -2.4774L0.6192 -2.4776L0.6177 -2.4804L0.6175 -2.4806L0.6144 -2.4863L0.6143 -2.4865L0.6127 -2.4893L0.6125 -2.4895L0.6091 -2.4949L0.6090 -2.4951L0.6072 -2.4978L0.6071 -2.4980L0.6016 -2.5060L0.6014 -2.5063L0.5974 -2.5115L0.5971 -2.5118L0.5889 -2.5216L0.5886 -2.5220L0.5842 -2.5267L0.5839 -2.5271L0.5747 -2.5361L0.5743 -2.5364L0.5695 -2.5407L0.5692 -2.5410L0.5591 -2.5491L0.5588 -2.5494L0.5536 -2.5532L0.5532 -2.5535L0.5424 -2.5606L0.5420 -2.5609L0.5364 -2.5642L0.5360 -2.5645L0.5274 -2.5691L0.5272 -2.5692L0.5242 -2.5706L0.5240 -2.5707L0.5181 -2.5735L0.5179 -2.5736L0.5149 -2.5750zM0.6218 -2.3874L0.6218 -2.3808L0.6217 -2.3777L0.6214 -2.3712L0.6211 -2.3681L0.6205 -2.3617L0.6201 -2.3587L0.6191 -2.3524L0.6185 -2.3494L0.6172 -2.3432L0.6165 -2.3402L0.6149 -2.3341L0.6141 -2.3312L0.6122 -2.3252L0.6112 -2.3224L0.6090 -2.3166L0.6079 -2.3138L0.6054 -2.3081L0.6041 -2.3054L0.6014 -2.2998L0.6000 -2.2972L0.5970 -2.2918L0.5955 -2.2892L0.5922 -2.2839L0.5906 -2.2815L0.5853 -2.2738L0.5817 -2.2691L0.5737 -2.2596L0.5697 -2.2553L0.5608 -2.2466L0.5564 -2.2426L0.5467 -2.2348L0.5419 -2.2313L0.5315 -2.2244L0.5263 -2.2213L0.5181 -2.2168L0.5154 -2.2155L0.5097 -2.2128L0.5069 -2.2116L0.5011 -2.2091L0.4982 -2.2080L0.4923 -2.2059L0.4893 -2.2049L0.4832 -2.2030L0.4803 -2.2022L0.4741 -2.2006L0.4710 -2.1999L0.4647 -2.1986L0.4616 -2.1981L0.4552 -2.1971L0.4521 -2.1967L0.4455 -2.1961L0.4423 -2.1958L0.4357 -2.1955L0.4325 -2.1954L0.4258 -2.1954L0.4226 -2.1955L0.4159 -2.1958L0.4128 -2.1961L0.4062 -2.1967L0.4031 -2.1971L0.3967 -2.1981L0.3936 -2.1986L0.3872 -2.1999L0.3842 -2.2006L0.3780 -2.2022L0.3750 -2.2030L0.3689 -2.2049L0.3660 -2.2059L0.3601 -2.2080L0.3572 -2.2091L0.3514 -2.2116L0.3486 -2.2128L0.3429 -2.2155L0.3402 -2.2168L0.3319 -2.2213L0.3268 -2.2244L0.3164 -2.2313L0.3115 -2.2348L0.3019 -2.2426L0.2974 -2.2466L0.2886 -2.2553L0.2845 -2.2596L0.2766 -2.2691L0.2730 -2.2738L0.2677 -2.2815L0.2661 -2.2839L0.2628 -2.2892L0.2613 -2.2918L0.2583 -2.2972L0.2569 -2.2998L0.2541 -2.3054L0.2529 -2.3081L0.2504 -2.3138L0.2493 -2.3166L0.2471 -2.3224L0.2461 -2.3252L0.2442 -2.3312L0.2434 -2.3341L0.2418 -2.3402L0.2411 -2.3432L0.2398 -2.3494L0.2392 -2.3524L0.2382 -2.3587L0.2378 -2.3617L0.2372 -2.3681L0.2369 -2.3712L0.2366 -2.3777L0.2365 -2.3808L0.2365 -2.3874L0.2366 -2.3905L0.2369 -2.3970L0.2372 -2.4001L0.2378 -2.4065L0.2382 -2.4096L0.2392 -2.4159L0.2398 -2.4189L0.2411 -2.4251L0.2418 -2.4280L0.2434 -2.4341L0.2442 -2.4370L0.2461 -2.4430L0.2471 -2.4458L0.2493 -2.4516L0.2504 -2.4544L0.2529 -2.4601L0.2541 -2.4628L0.2569 -2.4684L0.2583 -2.4710L0.2613 -2.4765L0.2628 -2.4790L0.2661 -2.4843L0.2677 -2.4868L0.2730 -2.4944L0.2766 -2.4991L0.2845 -2.5086L0.2886 -2.5129L0.2974 -2.5216L0.3019 -2.5256L0.3115 -2.5334L0.3164 -2.5370L0.3268 -2.5438L0.3319 -2.5469L0.3402 -2.5514L0.3429 -2.5527L0.3486 -2.5554L0.3514 -2.5567L0.3572 -2.5591L0.3601 -2.5602L0.3660 -2.5623L0.3689 -2.5633L0.3750 -2.5652L0.3780 -2.5660L0.3842 -2.5676L0.3872 -2.5683L0.3936 -2.5696L0.3967 -2.5701L0.4031 -2.5711L0.4062 -2.5715L0.4128 -2.5721L0.4159 -2.5724L0.4226 -2.5727L0.4258 -2.5728L0.4325 -2.5728L0.4357 -2.5727L0.4423 -2.5724L0.4455 -2.5721L0.4521 -2.5715L0.4552 -2.5711L0.4616 -2.5701L0.4647 -2.5696L0.4710 -2.5683L0.4741 -2.5676L0.4803 -2.5660L0.4832 -2.5652L0.4893 -2.5633L0.4923 -2.5623L0.4982 -2.5602L0.5011 -2.5591L0.5069 -2.5567L0.5097 -2.5554L0.5154 -2.5527L0.5181 -2.5514L0.5263 -2.5469L0.5315 -2.5438L0.5419 -2.5370L0.5467 -2.5334L0.5564 -2.5256L0.5608 -2.5216L0.5697 -2.5129L0.5737 -2.5086L0.5817 -2.4991L0.5853 -2.4944L0.5906 -2.4868L0.5922 -2.4843L0.5955 -2.4790L0.5970 -2.4765L0.6000 -2.4710L0.6014 -2.4684L0.6041 -2.4628L0.6054 -2.4601L0.6079 -2.4544L0.6090 -2.4516L0.6112 -2.4458L0.6122 -2.4430L0.6141 -2.4370L0.6149 -2.4341L0.6165 -2.4280L0.6172 -2.4251L0.6185 -2.4189L0.6191 -2.4159L0.6201 -2.4096L0.6205 -2.4065L0.6211 -2.4001L0.6214 -2.3970L0.6217 -2.3905L0.6218 -2.3874z" fill="param(fill)" fill-opacity="param(fill-opacity)" stroke="param(outline)" stroke-opacity="param(outline-opacity)" stroke-width="param(outline-width)"/>
</g>
<g id="L2">
<path class="C3" d="M0.5721 -2.5273L0.4281 -2.4086L0.2871 -2.5271L0.2840 -2.5293L0.2805 -2.5308L0.2768 -2.5317L0.2731 -2.5318L0.2693 -2.5312L0.2658 -2.5300L0.2625 -2.5280L0.2597 -2.5256L0.2574 -2.5226L0.2556 -2.5192L0.2546 -2.5156L0.2542 -2.5118L0.2542 -2.2572L0.2546 -2.2532L0.2559 -2.2493L0.2579 -2.2457L0.2606 -2.2426L0.2638 -2.2402L0.2675 -2.2384L0.2715 -2.2374L0.2756 -2.2373L0.2796 -2.2380L0.2834 -2.2395L0.2869 -2.2417L0.4281 -2.3569L0.5723 -2.2416L0.5757 -2.2394L0.5795 -2.2380L0.5836 -2.2373L0.5876 -2.2375L0.5916 -2.2384L0.5953 -2.2402L0.5985 -2.2427L0.6012 -2.2458L0.6032 -2.2493L0.6044 -2.2532L0.6048 -2.2572L0.6048 -2.5118L0.6044 -2.5156L0.6034 -2.5192L0.6017 -2.5225L0.5994 -2.5255L0.5966 -2.5280L0.5933 -2.5299L0.5898 -2.5312L0.5861 -2.5318L0.5823 -2.5317L0.5786 -2.5309L0.5752 -2.5294L0.5721 -2.5273zM0.5648 -2.4694L0.5648 -2.2988L0.4597 -2.3829L0.5648 -2.4694zM0.2942 -2.2994L0.2942 -2.4689L0.3966 -2.3829L0.2942 -2.2994z" fill="param(fill)" fill-opacity="param(fill-opacity)" stroke="param(outline)" stroke-opacity="param(outline-opacity)" stroke-width="param(outline-width)"/>
</g>
</defs>
</g>
<use xlink:href="#L1"/>
<use xlink:href="#L2"/>
</svg>
