<?xml version="1.0" encoding="UTF-8" standalone="no"?>
<!DOCTYPE svg PUBLIC "-//W3C//DTD SVG 1.1//EN" "http://www.w3.org/Graphics/SVG/1.1/DTD/svg11.dtd">
<svg xmlns="http://www.w3.org/2000/svg" xmlns:xlink="http://www.w3.org/1999/xlink" viewBox="0.216490066225166 -2.59322869063302 0.425298013245033 0.418282709197573" enable-background="new" shape-rendering="auto">
<defs>
<filter id="T">
  <feBlend mode="normal" in2="BackgroundImage" in="SourceGraphic"/>
</filter>
</defs>
<g>
<title>meter_75</title>
<style type="text/css"><![CDATA[.C1{fill:none;stroke:#ff0080;stroke-width:0.000500000000000;stroke-antialiasing:true;stroke-linecap:round;stroke-linejoin:round}]]></style>
<path class="C1" d="M0.2930 -2.5021L0.5664 -2.5030L0.2933 -2.3823L0.5670 -2.2634L0.2936 -2.2625" />
<style type="text/css"><![CDATA[.C2{fill:#ffffff;stroke:#ff0080;stroke-width:0.000500000000000;stroke-antialiasing:true;stroke-linecap:round;stroke-linejoin:round}]]></style>
<path class="C2" d="M0.2265 -2.3841C0.2265,-2.2748 0.3177,-2.1854 0.4291,-2.1854C0.5406,-2.1854 0.6318,-2.2748 0.6318,-2.3841C0.6318,-2.4934 0.5406,-2.5828 0.4291,-2.5828C0.3177,-2.5828 0.2265,-2.4934 0.2265,-2.3841z" />
<style type="text/css"><![CDATA[.C3{fill:none;stroke:#ff0080;stroke-width:0.000500000000000;stroke-antialiasing:true;stroke-linecap:square;stroke-linejoin:miter}]]></style>
<path class="C3" d="M0.6318 -2.5822L0.2301 -2.5832" fill="param(fill)" fill-opacity="param(fill-opacity)" stroke="param(outline)" stroke-opacity="param(outline-opacity)" stroke-width="param(outline-width)"/>
<path class="C1" d="M0.6318 -2.1849L0.2301 -2.1859" fill="param(fill)" fill-opacity="param(fill-opacity)" stroke="param(outline)" stroke-opacity="param(outline-opacity)" stroke-width="param(outline-width)"/>
<defs>
<g id="L1">
<style type="text/css"><![CDATA[.C4{fill:#ff0080;stroke:none}]]></style>
<path class="C4" d="M0.5204 -2.5725L0.6318 -2.5722L0.6337 -2.5724L0.6356 -2.5729L0.6373 -2.5739L0.6388 -2.5751L0.6401 -2.5766L0.6410 -2.5783L0.6416 -2.5802L0.6418 -2.5822L0.6416 -2.5841L0.6410 -2.5860L0.6401 -2.5877L0.6389 -2.5892L0.6374 -2.5905L0.6356 -2.5914L0.6338 -2.5920L0.6318 -2.5922L0.4361 -2.5927L0.4329 -2.5928L0.4326 -2.5928L0.4257 -2.5928L0.4254 -2.5928L0.4234 -2.5927L0.2302 -2.5932L0.2282 -2.5930L0.2263 -2.5925L0.2246 -2.5916L0.2231 -2.5903L0.2218 -2.5888L0.2209 -2.5871L0.2203 -2.5852L0.2201 -2.5833L0.2203 -2.5813L0.2209 -2.5794L0.2218 -2.5777L0.2231 -2.5762L0.2246 -2.5749L0.2263 -2.5740L0.2282 -2.5734L0.2301 -2.5732L0.3389 -2.5729L0.3342 -2.5707L0.3340 -2.5706L0.3311 -2.5692L0.3309 -2.5691L0.3223 -2.5645L0.3219 -2.5642L0.3163 -2.5609L0.3159 -2.5606L0.3051 -2.5535L0.3047 -2.5532L0.2995 -2.5494L0.2991 -2.5491L0.2891 -2.5410L0.2888 -2.5407L0.2840 -2.5364L0.2836 -2.5361L0.2744 -2.5271L0.2741 -2.5267L0.2697 -2.5220L0.2694 -2.5216L0.2611 -2.5118L0.2608 -2.5115L0.2569 -2.5063L0.2566 -2.5060L0.2512 -2.4980L0.2510 -2.4978L0.2493 -2.4951L0.2491 -2.4949L0.2457 -2.4895L0.2456 -2.4893L0.2440 -2.4865L0.2439 -2.4863L0.2407 -2.4806L0.2406 -2.4804L0.2391 -2.4776L0.2390 -2.4774L0.2362 -2.4716L0.2361 -2.4714L0.2347 -2.4684L0.2346 -2.4682L0.2320 -2.4623L0.2319 -2.4620L0.2307 -2.4590L0.2306 -2.4588L0.2283 -2.4527L0.2283 -2.4525L0.2272 -2.4494L0.2271 -2.4492L0.2251 -2.4430L0.2250 -2.4427L0.2241 -2.4396L0.2241 -2.4393L0.2224 -2.4330L0.2223 -2.4327L0.2216 -2.4295L0.2215 -2.4293L0.2202 -2.4228L0.2201 -2.4226L0.2195 -2.4193L0.2195 -2.4191L0.2184 -2.4125L0.2184 -2.4123L0.2180 -2.4090L0.2179 -2.4087L0.2172 -2.4021L0.2172 -2.4018L0.2170 -2.3984L0.2169 -2.3982L0.2166 -2.3914L0.2166 -2.3912L0.2165 -2.3878L0.2165 -2.3875L0.2165 -2.3807L0.2165 -2.3804L0.2166 -2.3770L0.2166 -2.3768L0.2169 -2.3700L0.2170 -2.3698L0.2172 -2.3664L0.2172 -2.3662L0.2179 -2.3595L0.2180 -2.3592L0.2184 -2.3559L0.2184 -2.3557L0.2195 -2.3491L0.2195 -2.3489L0.2201 -2.3456L0.2202 -2.3454L0.2215 -2.3389L0.2216 -2.3387L0.2223 -2.3355L0.2224 -2.3352L0.2241 -2.3289L0.2241 -2.3286L0.2250 -2.3255L0.2251 -2.3253L0.2271 -2.3190L0.2272 -2.3188L0.2283 -2.3157L0.2283 -2.3155L0.2306 -2.3094L0.2307 -2.3092L0.2319 -2.3062L0.2320 -2.3060L0.2346 -2.3000L0.2347 -2.2998L0.2361 -2.2969L0.2362 -2.2966L0.2390 -2.2909L0.2391 -2.2906L0.2406 -2.2878L0.2407 -2.2876L0.2439 -2.2819L0.2440 -2.2817L0.2456 -2.2789L0.2457 -2.2787L0.2491 -2.2733L0.2493 -2.2731L0.2510 -2.2704L0.2512 -2.2702L0.2566 -2.2623L0.2569 -2.2619L0.2608 -2.2568L0.2611 -2.2564L0.2694 -2.2466L0.2697 -2.2462L0.2741 -2.2415L0.2744 -2.2412L0.2836 -2.2321L0.2840 -2.2318L0.2888 -2.2275L0.2891 -2.2272L0.2991 -2.2191L0.2995 -2.2188L0.3047 -2.2150L0.3051 -2.2147L0.3159 -2.2076L0.3163 -2.2073L0.3219 -2.2040L0.3223 -2.2037L0.3309 -2.1991L0.3311 -2.1990L0.3340 -2.1976L0.3342 -2.1975L0.3381 -2.1956L0.2302 -2.1959L0.2282 -2.1957L0.2263 -2.1951L0.2246 -2.1942L0.2231 -2.1930L0.2218 -2.1915L0.2209 -2.1897L0.2203 -2.1879L0.2201 -2.1859L0.2203 -2.1840L0.2209 -2.1821L0.2218 -2.1803L0.2231 -2.1788L0.2246 -2.1776L0.2263 -2.1767L0.2282 -2.1761L0.2301 -2.1759L0.6318 -2.1749L0.6337 -2.1751L0.6356 -2.1757L0.6373 -2.1766L0.6388 -2.1779L0.6401 -2.1794L0.6410 -2.1811L0.6416 -2.1830L0.6418 -2.1849L0.6416 -2.1869L0.6410 -2.1888L0.6401 -2.1905L0.6389 -2.1920L0.6374 -2.1932L0.6356 -2.1942L0.6338 -2.1947L0.6318 -2.1949L0.5193 -2.1952L0.5240 -2.1975L0.5242 -2.1976L0.5272 -2.1990L0.5274 -2.1991L0.5360 -2.2037L0.5364 -2.2040L0.5420 -2.2073L0.5424 -2.2076L0.5532 -2.2147L0.5536 -2.2150L0.5588 -2.2188L0.5591 -2.2191L0.5692 -2.2272L0.5695 -2.2275L0.5743 -2.2318L0.5747 -2.2321L0.5839 -2.2412L0.5842 -2.2415L0.5886 -2.2462L0.5889 -2.2466L0.5971 -2.2564L0.5974 -2.2568L0.6014 -2.2619L0.6016 -2.2623L0.6071 -2.2702L0.6072 -2.2704L0.6090 -2.2731L0.6091 -2.2733L0.6125 -2.2787L0.6127 -2.2789L0.6143 -2.2817L0.6144 -2.2819L0.6175 -2.2876L0.6177 -2.2878L0.6192 -2.2906L0.6193 -2.2909L0.6221 -2.2966L0.6222 -2.2969L0.6236 -2.2998L0.6237 -2.3000L0.6263 -2.3060L0.6264 -2.3062L0.6276 -2.3092L0.6277 -2.3094L0.6299 -2.3155L0.6300 -2.3157L0.6311 -2.3188L0.6312 -2.3190L0.6332 -2.3253L0.6332 -2.3255L0.6341 -2.3286L0.6342 -2.3289L0.6359 -2.3352L0.6359 -2.3355L0.6367 -2.3387L0.6368 -2.3389L0.6381 -2.3454L0.6382 -2.3456L0.6388 -2.3489L0.6388 -2.3491L0.6398 -2.3557L0.6399 -2.3559L0.6403 -2.3592L0.6403 -2.3595L0.6410 -2.3662L0.6411 -2.3664L0.6413 -2.3698L0.6413 -2.3700L0.6417 -2.3768L0.6417 -2.3770L0.6418 -2.3804L0.6418 -2.3807L0.6418 -2.3875L0.6418 -2.3878L0.6417 -2.3912L0.6417 -2.3914L0.6413 -2.3982L0.6413 -2.3984L0.6411 -2.4018L0.6410 -2.4021L0.6403 -2.4087L0.6403 -2.4090L0.6399 -2.4123L0.6398 -2.4125L0.6388 -2.4191L0.6388 -2.4193L0.6382 -2.4226L0.6381 -2.4228L0.6368 -2.4293L0.6367 -2.4295L0.6359 -2.4327L0.6359 -2.4330L0.6342 -2.4393L0.6341 -2.4396L0.6332 -2.4427L0.6332 -2.4430L0.6312 -2.4492L0.6311 -2.4494L0.6300 -2.4525L0.6299 -2.4527L0.6277 -2.4588L0.6276 -2.4590L0.6264 -2.4620L0.6263 -2.4623L0.6237 -2.4682L0.6236 -2.4684L0.6222 -2.4714L0.6221 -2.4716L0.6193 -2.4774L0.6192 -2.4776L0.6177 -2.4804L0.6175 -2.4806L0.6144 -2.4863L0.6143 -2.4865L0.6127 -2.4893L0.6125 -2.4895L0.6091 -2.4949L0.6090 -2.4951L0.6072 -2.4978L0.6071 -2.4980L0.6016 -2.5060L0.6014 -2.5063L0.5974 -2.5115L0.5971 -2.5118L0.5889 -2.5216L0.5886 -2.5220L0.5842 -2.5267L0.5839 -2.5271L0.5747 -2.5361L0.5743 -2.5364L0.5695 -2.5407L0.5692 -2.5410L0.5591 -2.5491L0.5588 -2.5494L0.5536 -2.5532L0.5532 -2.5535L0.5424 -2.5606L0.5420 -2.5609L0.5364 -2.5642L0.5360 -2.5645L0.5274 -2.5691L0.5272 -2.5692L0.5242 -2.5706L0.5240 -2.5707L0.5204 -2.5725zM0.6218 -2.3874L0.6218 -2.3808L0.6217 -2.3777L0.6214 -2.3712L0.6211 -2.3681L0.6205 -2.3617L0.6201 -2.3587L0.6191 -2.3524L0.6185 -2.3494L0.6172 -2.3432L0.6165 -2.3402L0.6149 -2.3341L0.6141 -2.3312L0.6122 -2.3252L0.6112 -2.3224L0.6090 -2.3166L0.6079 -2.3138L0.6054 -2.3081L0.6041 -2.3054L0.6014 -2.2998L0.6000 -2.2972L0.5970 -2.2918L0.5955 -2.2892L0.5922 -2.2839L0.5906 -2.2815L0.5853 -2.2738L0.5817 -2.2691L0.5737 -2.2596L0.5697 -2.2553L0.5608 -2.2466L0.5564 -2.2426L0.5467 -2.2348L0.5419 -2.2313L0.5315 -2.2244L0.5263 -2.2213L0.5181 -2.2168L0.5154 -2.2155L0.5097 -2.2128L0.5069 -2.2116L0.5011 -2.2091L0.4982 -2.2080L0.4923 -2.2059L0.4893 -2.2049L0.4832 -2.2030L0.4803 -2.2022L0.4741 -2.2006L0.4710 -2.1999L0.4647 -2.1986L0.4616 -2.1981L0.4552 -2.1971L0.4521 -2.1967L0.4455 -2.1961L0.4423 -2.1958L0.4357 -2.1955L0.4325 -2.1954L0.4258 -2.1954L0.4226 -2.1955L0.4159 -2.1958L0.4128 -2.1961L0.4062 -2.1967L0.4031 -2.1971L0.3967 -2.1981L0.3936 -2.1986L0.3872 -2.1999L0.3842 -2.2006L0.3780 -2.2022L0.3750 -2.2030L0.3689 -2.2049L0.3660 -2.2059L0.3601 -2.2080L0.3572 -2.2091L0.3514 -2.2116L0.3486 -2.2128L0.3429 -2.2155L0.3402 -2.2168L0.3319 -2.2213L0.3268 -2.2244L0.3164 -2.2313L0.3115 -2.2348L0.3019 -2.2426L0.2974 -2.2466L0.2886 -2.2553L0.2845 -2.2596L0.2766 -2.2691L0.2730 -2.2738L0.2677 -2.2815L0.2661 -2.2839L0.2628 -2.2892L0.2613 -2.2918L0.2583 -2.2972L0.2569 -2.2998L0.2541 -2.3054L0.2529 -2.3081L0.2504 -2.3138L0.2493 -2.3166L0.2471 -2.3224L0.2461 -2.3252L0.2442 -2.3312L0.2434 -2.3341L0.2418 -2.3402L0.2411 -2.3432L0.2398 -2.3494L0.2392 -2.3524L0.2382 -2.3587L0.2378 -2.3617L0.2372 -2.3681L0.2369 -2.3712L0.2366 -2.3777L0.2365 -2.3808L0.2365 -2.3874L0.2366 -2.3905L0.2369 -2.3970L0.2372 -2.4001L0.2378 -2.4065L0.2382 -2.4096L0.2392 -2.4159L0.2398 -2.4189L0.2411 -2.4251L0.2418 -2.4280L0.2434 -2.4341L0.2442 -2.4370L0.2461 -2.4430L0.2471 -2.4458L0.2493 -2.4516L0.2504 -2.4544L0.2529 -2.4601L0.2541 -2.4628L0.2569 -2.4684L0.2583 -2.4710L0.2613 -2.4765L0.2628 -2.4790L0.2661 -2.4843L0.2677 -2.4868L0.2730 -2.4944L0.2766 -2.4991L0.2845 -2.5086L0.2886 -2.5129L0.2974 -2.5216L0.3019 -2.5256L0.3115 -2.5334L0.3164 -2.5370L0.3268 -2.5438L0.3319 -2.5469L0.3402 -2.5514L0.3429 -2.5527L0.3486 -2.5554L0.3514 -2.5567L0.3572 -2.5591L0.3601 -2.5602L0.3660 -2.5623L0.3689 -2.5633L0.3750 -2.5652L0.3780 -2.5660L0.3842 -2.5676L0.3872 -2.5683L0.3936 -2.5696L0.3967 -2.5701L0.4031 -2.5711L0.4062 -2.5715L0.4128 -2.5721L0.4159 -2.5724L0.4226 -2.5727L0.4237 -2.5727L0.4358 -2.5727L0.4423 -2.5724L0.4455 -2.5721L0.4521 -2.5715L0.4552 -2.5711L0.4616 -2.5701L0.4647 -2.5696L0.4710 -2.5683L0.4741 -2.5676L0.4803 -2.5660L0.4832 -2.5652L0.4893 -2.5633L0.4923 -2.5623L0.4982 -2.5602L0.5011 -2.5591L0.5069 -2.5567L0.5097 -2.5554L0.5154 -2.5527L0.5181 -2.5514L0.5263 -2.5469L0.5315 -2.5438L0.5419 -2.5370L0.5467 -2.5334L0.5564 -2.5256L0.5608 -2.5216L0.5697 -2.5129L0.5737 -2.5086L0.5817 -2.4991L0.5853 -2.4944L0.5906 -2.4868L0.5922 -2.4843L0.5955 -2.4790L0.5970 -2.4765L0.6000 -2.4710L0.6014 -2.4684L0.6041 -2.4628L0.6054 -2.4601L0.6079 -2.4544L0.6090 -2.4516L0.6112 -2.4458L0.6122 -2.4430L0.6141 -2.4370L0.6149 -2.4341L0.6165 -2.4280L0.6172 -2.4251L0.6185 -2.4189L0.6191 -2.4159L0.6201 -2.4096L0.6205 -2.4065L0.6211 -2.4001L0.6214 -2.3970L0.6217 -2.3905L0.6218 -2.3874z" fill="param(fill)" fill-opacity="param(fill-opacity)" stroke="param(outline)" stroke-opacity="param(outline-opacity)" stroke-width="param(outline-width)"/>
</g>
<g id="L2">
<path class="C4" d="M0.5670 -2.2434L0.5709 -2.2438L0.5746 -2.2450L0.5780 -2.2468L0.5811 -2.2493L0.5835 -2.2523L0.5854 -2.2557L0.5865 -2.2594L0.5870 -2.2633L0.5866 -2.2671L0.5855 -2.2709L0.5837 -2.2743L0.5813 -2.2774L0.5783 -2.2799L0.5749 -2.2818L0.3431 -2.3825L0.5745 -2.4847L0.5779 -2.4866L0.5808 -2.4891L0.5832 -2.4922L0.5850 -2.4957L0.5861 -2.4994L0.5864 -2.5033L0.5859 -2.5071L0.5848 -2.5109L0.5829 -2.5143L0.5804 -2.5173L0.5774 -2.5197L0.5739 -2.5215L0.5702 -2.5226L0.5663 -2.5230L0.2929 -2.5221L0.2890 -2.5217L0.2853 -2.5205L0.2818 -2.5187L0.2788 -2.5162L0.2763 -2.5131L0.2745 -2.5097L0.2734 -2.5059L0.2730 -2.5020L0.2734 -2.4981L0.2746 -2.4944L0.2764 -2.4909L0.2789 -2.4879L0.2820 -2.4854L0.2854 -2.4836L0.2892 -2.4825L0.2931 -2.4821L0.4709 -2.4827L0.2852 -2.4006L0.2819 -2.3987L0.2789 -2.3962L0.2765 -2.3932L0.2747 -2.3898L0.2737 -2.3861L0.2733 -2.3823L0.2737 -2.3784L0.2748 -2.3747L0.2766 -2.3713L0.2790 -2.3683L0.2820 -2.3658L0.2853 -2.3640L0.4714 -2.2831L0.2935 -2.2825L0.2896 -2.2821L0.2859 -2.2810L0.2824 -2.2791L0.2794 -2.2766L0.2769 -2.2736L0.2751 -2.2701L0.2740 -2.2664L0.2736 -2.2625L0.2740 -2.2586L0.2751 -2.2548L0.2770 -2.2514L0.2795 -2.2483L0.2825 -2.2459L0.2860 -2.2440L0.2897 -2.2429L0.2936 -2.2425L0.5670 -2.2434z" fill="param(fill)" fill-opacity="param(fill-opacity)" stroke="param(outline)" stroke-opacity="param(outline-opacity)" stroke-width="param(outline-width)"/>
</g>
</defs>
</g>
<use xlink:href="#L1"/>
<use xlink:href="#L2"/>
</svg>
