<?xml version="1.0" encoding="UTF-8" standalone="no"?>
<!-- Created with Inkscape (http://www.inkscape.org/) -->

<svg
   width="180"
   height="180"
   viewBox="0 0 180 180"
   version="1.1"
   id="svg1"
   sodipodi:docname="消火栓_消.svg"
   inkscape:version="1.3 (0e150ed6c4, 2023-07-21)"
   xmlns:inkscape="http://www.inkscape.org/namespaces/inkscape"
   xmlns:sodipodi="http://sodipodi.sourceforge.net/DTD/sodipodi-0.dtd"
   xmlns="http://www.w3.org/2000/svg"
   xmlns:svg="http://www.w3.org/2000/svg">
  <sodipodi:namedview
     id="namedview1"
     pagecolor="#ffffff"
     bordercolor="#000000"
     borderopacity="0.25"
     inkscape:showpageshadow="2"
     inkscape:pageopacity="0.0"
     inkscape:pagecheckerboard="0"
     inkscape:deskcolor="#d1d1d1"
     inkscape:document-units="px"
     inkscape:zoom="6.2944444"
     inkscape:cx="86.187114"
     inkscape:cy="87.299206"
     inkscape:window-width="2256"
     inkscape:window-height="1410"
     inkscape:window-x="-11"
     inkscape:window-y="-11"
     inkscape:window-maximized="1"
     inkscape:current-layer="layer1" />
  <defs
     id="defs1" />
  <g
     inkscape:label="Layer 1"
     inkscape:groupmode="layer"
     id="layer1">
    <path
       id="path2"
       style="fill:#ff00fb;stroke:#ffffff;stroke-width:0;stroke-linejoin:round;stroke-miterlimit:12.2"
       d="M 90 5 A 85 85 0 0 0 5 90 A 85 85 0 0 0 90 175 A 85 85 0 0 0 175 90 A 85 85 0 0 0 90 5 z M 90 22.5 A 67.5 67.5 0 0 1 93.3125 22.582031 A 67.5 67.5 0 0 1 96.615234 22.824219 A 67.5 67.5 0 0 1 99.904297 23.230469 A 67.5 67.5 0 0 1 103.16797 23.796875 A 67.5 67.5 0 0 1 106.40039 24.523438 A 67.5 67.5 0 0 1 109.59375 25.40625 A 67.5 67.5 0 0 1 112.74023 26.445312 A 67.5 67.5 0 0 1 115.83203 27.638672 A 67.5 67.5 0 0 1 118.85938 28.980469 A 67.5 67.5 0 0 1 121.81836 30.470703 A 67.5 67.5 0 0 1 124.70117 32.103516 A 67.5 67.5 0 0 1 127.50195 33.875 A 67.5 67.5 0 0 1 130.20898 35.783203 A 67.5 67.5 0 0 1 132.82227 37.822266 A 67.5 67.5 0 0 1 135.33008 39.986328 A 67.5 67.5 0 0 1 137.73047 42.269531 A 67.5 67.5 0 0 1 140.01367 44.669922 A 67.5 67.5 0 0 1 142.17773 47.177734 A 67.5 67.5 0 0 1 144.2168 49.791016 A 67.5 67.5 0 0 1 146.125 52.498047 A 67.5 67.5 0 0 1 147.89648 55.298828 A 67.5 67.5 0 0 1 149.5293 58.181641 A 67.5 67.5 0 0 1 151.01953 61.140625 A 67.5 67.5 0 0 1 152.36133 64.167969 A 67.5 67.5 0 0 1 153.55469 67.259766 A 67.5 67.5 0 0 1 154.59375 70.40625 A 67.5 67.5 0 0 1 155.47656 73.599609 A 67.5 67.5 0 0 1 156.20312 76.832031 A 67.5 67.5 0 0 1 156.76953 80.095703 A 67.5 67.5 0 0 1 157.17578 83.384766 A 67.5 67.5 0 0 1 157.41797 86.6875 A 67.5 67.5 0 0 1 157.5 90 A 67.5 67.5 0 0 1 156.8125 99.605469 A 67.5 67.5 0 0 1 154.76562 109.01758 A 67.5 67.5 0 0 1 151.40039 118.04102 A 67.5 67.5 0 0 1 146.78516 126.49414 A 67.5 67.5 0 0 1 141.01367 134.20312 A 67.5 67.5 0 0 1 134.20312 141.01367 A 67.5 67.5 0 0 1 126.49414 146.78516 A 67.5 67.5 0 0 1 118.04102 151.40039 A 67.5 67.5 0 0 1 109.01758 154.76562 A 67.5 67.5 0 0 1 99.605469 156.8125 A 67.5 67.5 0 0 1 90 157.5 A 67.5 67.5 0 0 1 80.394531 156.8125 A 67.5 67.5 0 0 1 70.982422 154.76562 A 67.5 67.5 0 0 1 61.958984 151.40039 A 67.5 67.5 0 0 1 53.505859 146.78516 A 67.5 67.5 0 0 1 45.796875 141.01367 A 67.5 67.5 0 0 1 38.986328 134.20312 A 67.5 67.5 0 0 1 33.214844 126.49414 A 67.5 67.5 0 0 1 28.599609 118.04102 A 67.5 67.5 0 0 1 25.234375 109.01758 A 67.5 67.5 0 0 1 23.1875 99.605469 A 67.5 67.5 0 0 1 22.5 90 A 67.5 67.5 0 0 1 23.1875 80.394531 A 67.5 67.5 0 0 1 25.234375 70.982422 A 67.5 67.5 0 0 1 28.599609 61.958984 A 67.5 67.5 0 0 1 33.214844 53.505859 A 67.5 67.5 0 0 1 38.986328 45.796875 A 67.5 67.5 0 0 1 45.796875 38.986328 A 67.5 67.5 0 0 1 53.505859 33.214844 A 67.5 67.5 0 0 1 61.958984 28.599609 A 67.5 67.5 0 0 1 70.982422 25.234375 A 67.5 67.5 0 0 1 80.394531 23.1875 A 67.5 67.5 0 0 1 90 22.5 z M 103.2168 35.005859 C 101.96216 35.000758 100.7096 35.003371 99.466797 35.050781 C 98.985137 35.261311 98.503134 35.473064 98.021484 35.683594 C 97.709236 36.414797 97.39098 37.143233 97.519531 37.951172 L 97.519531 64.214844 L 88.056641 64.214844 C 90.50783 63.062303 93.030287 61.998306 95.4375 60.791016 C 95.816185 60.222109 96.668729 59.806417 96.429688 59.037109 C 96.414818 57.860206 95.673781 56.830804 95.279297 55.740234 C 92.878128 50.351853 89.731721 45.278476 85.992188 40.650391 C 85.30236 40.404417 84.681409 39.655962 83.908203 40.017578 C 82.729873 40.286275 81.780181 41.107754 80.701172 41.617188 C 78.659046 42.785644 76.538543 43.870124 74.544922 45.089844 C 74.258274 45.661976 73.416341 46.117812 73.716797 46.814453 C 73.786487 48.056429 74.795608 48.938599 75.361328 49.996094 C 78.240432 54.548467 80.728168 59.323479 82.919922 64.214844 C 80.460512 64.242094 77.977354 64.160909 75.533203 64.255859 C 74.941254 64.615236 73.966565 64.630675 73.873047 65.4375 C 73.342773 66.457577 73.679981 67.62859 73.585938 68.724609 L 73.585938 136.97266 C 73.912969 137.4572 73.973447 138.21628 74.476562 138.51953 C 75.197797 138.84818 75.947635 139.0253 76.748047 138.93359 C 79.470254 138.90629 82.216884 138.98758 84.923828 138.89258 C 85.515778 138.5332 86.488512 138.5158 86.582031 137.70898 C 87.112305 136.68891 86.77705 135.51789 86.871094 134.42188 L 86.871094 114.1543 L 121.91406 114.1543 L 121.91406 125.71875 C 119.80463 125.74625 117.67034 125.66457 115.57617 125.75977 C 115.0976 126.09134 114.21541 126.08547 114.04297 126.67383 C 113.82506 127.36177 113.50659 128.04217 113.78125 128.76172 C 114.23116 131.32804 114.57482 133.93328 115.0918 136.47461 C 115.55003 136.99015 115.72688 137.87249 116.55078 137.91016 C 117.6995 138.20843 118.92786 137.97392 120.10938 138.04883 C 122.88379 137.99573 125.66861 138.16551 128.43555 137.94141 C 131.03026 137.67947 133.53558 136.13796 134.48633 133.74219 C 135.57324 131.18307 135.08587 128.36284 135.19727 125.67578 L 135.19727 66.175781 C 134.87024 65.69125 134.81171 64.932157 134.30859 64.628906 C 133.58735 64.300257 132.83752 64.123141 132.03711 64.214844 L 126.07617 64.214844 C 129.63796 59.549215 132.52769 54.45313 135.5 49.431641 C 135.89502 48.969775 135.95525 48.06796 136.69922 48.074219 C 138.16922 47.868337 139.33116 46.41685 138.9082 44.998047 C 138.33635 43.363544 136.67966 42.343207 135.08594 41.740234 C 132.38367 40.60108 129.70552 39.352784 126.98828 38.28125 C 126.29425 38.37375 125.40509 38.011196 124.96484 38.699219 C 124.03156 39.460163 123.77672 40.691459 123.16797 41.677734 C 120.36156 47.116179 117.43081 52.511874 113.95508 57.587891 C 113.96108 58.162256 113.57034 58.842489 113.83789 59.347656 C 114.32441 59.973722 114.82251 60.585995 115.62109 60.845703 C 117.84013 61.968846 120.05831 63.0917 122.27734 64.214844 L 110.80469 64.214844 L 110.80469 40.576172 C 112.00784 39.685782 112.80884 37.976273 111.9043 36.636719 C 110.86134 35.099962 108.71336 34.949772 106.97852 35.009766 C 105.72808 35.023341 104.47144 35.010961 103.2168 35.005859 z M 50.121094 40.019531 C 49.739238 39.996615 49.380198 40.044565 49.103516 40.359375 L 48.666016 40.679688 C 46.984363 42.929803 45.197842 45.133793 43.582031 47.412109 C 43.561251 48.045439 42.97237 48.794065 43.552734 49.306641 C 43.919214 49.976903 44.509864 50.417417 45.199219 50.757812 C 50.251994 53.845083 54.868292 57.579864 58.960938 61.777344 C 59.542477 61.905393 60.136649 62.430602 60.708984 62.296875 C 61.458096 61.983794 62.19974 61.659734 62.646484 60.966797 C 64.415277 58.963831 66.284711 57.014763 67.990234 54.978516 C 68.102809 54.30959 68.696696 53.606566 68.181641 52.982422 C 67.664617 51.925675 66.639342 51.189962 65.847656 50.320312 C 61.607977 46.18471 56.61503 42.804834 51.275391 40.111328 C 50.908357 40.136013 50.50295 40.042448 50.121094 40.019531 z M 45.109375 64.351562 C 44.728009 64.319077 44.36593 64.357665 44.078125 64.662109 C 43.936765 64.757879 43.795657 64.853447 43.654297 64.949219 L 38.130859 71.587891 C 38.074919 72.160556 37.617767 72.794731 37.826172 73.326172 C 38.223528 73.991099 38.648602 74.631603 39.388672 74.980469 C 44.283675 78.356205 48.583745 82.473203 52.435547 86.912109 C 53.007104 87.07233 53.569135 87.634553 54.146484 87.529297 C 54.876926 87.238743 55.655405 87.015838 56.107422 86.341797 L 62.384766 79.90625 C 62.495322 79.336433 62.978382 78.750462 62.84375 78.191406 C 62.41846 76.91451 61.234097 76.108291 60.359375 75.121094 C 56.206935 70.964839 51.505691 67.281727 46.259766 64.472656 C 45.891591 64.487676 45.490741 64.384048 45.109375 64.351562 z M 86.871094 76.542969 L 121.91406 76.542969 L 121.91406 82.798828 L 86.871094 82.798828 L 86.871094 76.542969 z M 58.369141 92.171875 C 58.223087 92.173281 58.084978 92.208124 57.957031 92.298828 C 57.581915 92.555967 57.205193 92.813173 56.830078 93.070312 C 53.834184 98.220002 50.768117 103.33183 47.554688 108.35938 C 44.356865 113.31696 40.96611 118.36829 37.173828 123.00977 C 36.608596 123.79691 35.809915 124.45564 35.34375 125.28516 C 35.24522 125.92256 34.684015 126.61382 35.248047 127.17383 C 35.766714 128.25415 36.95712 128.80568 37.804688 129.62695 C 40.601646 131.90714 43.355632 134.24521 46.173828 136.49609 C 47.352221 137.37227 49.27858 137.06347 49.939453 135.73633 C 50.481109 134.74339 50.318975 133.5683 50.15625 132.50195 C 56.851472 122.34341 62.973077 111.84412 68.691406 101.15039 C 68.632156 100.44341 69.057334 99.594589 68.412109 99.058594 C 67.59949 98.120022 66.434585 97.514395 65.476562 96.712891 C 63.561343 95.315458 61.696368 93.817491 59.75 92.482422 C 59.307827 92.466852 58.807301 92.167658 58.369141 92.171875 z M 86.871094 95.128906 L 121.91406 95.128906 L 121.91406 101.82617 L 86.871094 101.82617 L 86.871094 95.128906 z "fill="param(fill)" fill-opacity="param(fill-opacity)" stroke="param(outline)" stroke-opacity="param(outline-opacity)" stroke-width="param(outline-width)" />
    <path
       style="fill:#ffffff;fill-opacity:1;stroke:#ffffff;stroke-width:0;stroke-linejoin:round;stroke-miterlimit:12.2"
       d="M 85.472198,157.26644 C 72.732444,156.41107 59.78242,151.62429 49.749348,144.06204 45.943206,141.19322 41.400451,136.9428 38.663239,133.68932 29.450314,122.73875 23.999251,109.5794 22.803128,95.401589 c -0.206881,-2.452191 -0.206881,-8.350987 0,-10.803178 1.196489,-14.182154 6.644363,-27.33381 15.860111,-38.287731 0.66162,-0.786408 2.313372,-2.543748 3.670559,-3.9052 C 51.777194,32.932415 63.651223,26.546758 76.703661,23.921937 81.471714,22.96309 84.720339,22.653076 90,22.653076 c 8.142558,0 15.09873,1.176653 22.48014,3.802568 21.44013,7.627267 37.54231,25.42434 42.97496,47.49846 1.48359,6.028168 1.97892,10.651628 1.85525,17.316858 -0.13991,7.540222 -1.13771,13.412378 -3.43928,20.240448 -9.76284,28.96346 -37.92327,47.80122 -68.398872,45.75503 z m 0.238305,-18.61897 c 1.257412,-0.61719 1.186121,0.12513 1.23525,-12.86194 l 0.04372,-11.55782 h 17.392287 17.39229 v 5.71933 5.71933 h -3.0848 c -2.72317,0 -3.17097,0.0369 -3.81989,0.3151 -0.82666,0.35435 -1.19769,0.98192 -1.19769,2.02581 0,0.33194 0.2905,2.35354 0.64555,4.49244 0.5458,3.28799 0.71145,3.99308 1.07203,4.56304 0.24745,0.39113 0.61999,0.74158 0.88743,0.83481 0.65289,0.2276 11.90934,0.2125 12.99617,-0.0174 1.99845,-0.42279 3.94348,-1.73844 4.84545,-3.27754 0.22123,-0.37749 0.55479,-1.13061 0.74126,-1.6736 l 0.33903,-0.98725 0.045,-32.886145 0.045,-32.886143 -0.3465,-0.746778 c -0.53836,-1.16029 -0.86586,-1.239101 -5.14922,-1.239101 h -3.5723 l 1.06278,-1.468895 c 1.6968,-2.345197 2.9533,-4.314057 6.10482,-9.565867 2.67041,-4.450059 3.00226,-4.934982 3.43824,-5.02415 1.21207,-0.247893 2.25753,-1.419032 2.25753,-2.528908 0,-1.052216 -1.2577,-2.603621 -2.7123,-3.345707 -0.37706,-0.19236 -2.58104,-1.16629 -4.89774,-2.16429 -3.71281,-1.599423 -4.32866,-1.818274 -5.19464,-1.846007 -0.83767,-0.02683 -1.04124,0.02362 -1.38132,0.342308 -0.21937,0.205575 -1.09549,1.706899 -1.94693,3.336276 -3.28931,6.294633 -5.32228,9.862961 -7.71039,13.533529 -1.20957,1.859114 -1.41176,2.268602 -1.49048,3.018535 -0.0854,0.813908 -0.0594,0.902066 0.41996,1.423679 0.35341,0.384544 1.64162,1.129601 4.17665,2.415632 l 3.66562,1.859588 -5.60018,0.0071 -5.60018,0.0071 V 52.456908 40.730232 l 0.46509,-0.445577 c 0.25579,-0.245067 0.62045,-0.806745 0.81035,-1.248176 0.64358,-1.49606 0.0621,-2.819662 -1.57618,-3.587887 l -0.89078,-0.417701 -5.03114,-0.04972 c -4.857761,-0.04801 -5.058563,-0.03793 -5.8271,0.292691 -1.377283,0.592491 -1.295339,-0.372241 -1.295339,15.250099 v 13.659626 h -4.474846 c -2.461164,0 -4.444856,-0.02999 -4.408205,-0.06664 0.03665,-0.03665 1.567765,-0.756524 3.402472,-1.599715 2.631063,-1.209181 3.466047,-1.668372 3.952177,-2.173458 0.597025,-0.620308 0.613549,-0.667498 0.527081,-1.505302 -0.06177,-0.598496 -0.438048,-1.633511 -1.221552,-3.360079 -2.020564,-4.452619 -4.711337,-8.979347 -7.71293,-12.975581 -1.953121,-2.600329 -2.790934,-3.024875 -4.441955,-2.250878 -0.656126,0.307592 -6.390847,3.471885 -8.102383,4.470718 -0.262136,0.152981 -0.679658,0.537125 -0.927826,0.853655 -0.386886,0.493459 -0.441185,0.682969 -0.380863,1.329267 0.04512,0.483369 0.246454,1.024777 0.561263,1.509268 2.50346,3.852794 4.903934,8.120918 7.036937,12.511906 l 1.543482,3.177405 -3.837062,0.07944 c -3.373659,0.06984 -3.908303,0.116228 -4.426964,0.384088 -1.163532,0.600902 -1.078235,-2.329108 -1.078235,37.037959 0,34.88589 0.0037,35.30852 0.315892,36.01426 0.592759,1.34003 0.711208,1.36529 6.436094,1.37249 4.600886,0.006 4.790892,-0.006 5.481024,-0.34491 z m -36.549975,-1.99006 c 0.957981,-0.7096 1.33885,-1.751 1.180733,-3.22846 l -0.09587,-0.89585 1.421692,-2.20212 c 5.168613,-8.00588 10.481718,-16.96899 15.272866,-25.76505 1.458755,-2.67813 1.775304,-3.38127 1.859561,-4.13063 0.08893,-0.790964 0.05608,-0.960718 -0.264614,-1.367294 C 68.33351,98.81269 66.323661,97.225043 64.068563,95.539901 59.199541,91.90148 58.70666,91.685245 57.38079,92.605876 c -0.546535,0.37949 -1.041079,1.103733 -2.793448,4.090909 -6.159512,10.499815 -12.485739,20.033435 -16.995924,25.612835 -2.387713,2.95376 -2.312927,2.84652 -2.54169,3.64462 -0.181924,0.63469 -0.166722,0.73561 0.206804,1.37299 0.22174,0.37837 0.851488,1.04519 1.399442,1.48184 0.547953,0.43664 2.959583,2.41225 5.359178,4.39024 2.399596,1.97799 4.58009,3.66317 4.845543,3.74483 0.664717,0.2045 1.833363,0.0588 2.299835,-0.28673 z M 55.13346,87.175578 c 0.352528,-0.194141 2.146502,-1.891537 3.986607,-3.77199 2.931281,-2.995553 3.379554,-3.521085 3.619398,-4.243191 0.260627,-0.784671 0.260122,-0.853064 -0.01054,-1.426536 -0.519034,-1.099727 -4.427264,-4.887515 -8.048491,-7.800455 -1.586178,-1.275931 -5.754651,-4.087623 -7.431801,-5.012849 -0.87453,-0.482448 -1.204116,-0.578103 -1.991879,-0.578103 -1.221935,0 -1.282663,0.05356 -4.568252,4.029258 -3.348634,4.051981 -3.540903,4.599605 -2.113524,6.019786 0.372965,0.371084 1.247168,1.066558 1.942675,1.545499 2.862754,1.971351 6.991003,5.696138 10.203999,9.206744 0.914275,0.998961 1.886516,1.937463 2.160536,2.085562 0.699421,0.378014 1.50208,0.358859 2.251271,-0.05373 z m 6.257307,-25.130364 c 0.591348,-0.29966 1.455706,-1.154383 3.706316,-3.665009 4.182949,-4.66621 4.203035,-4.810449 1.091035,-7.835363 -3.927699,-3.817784 -8.520994,-7.148153 -13.405194,-9.719433 -1.206342,-0.635076 -1.679577,-0.799726 -2.387879,-0.830793 -1.177187,-0.05163 -1.398152,0.127967 -3.487129,2.834373 -3.119553,4.041581 -3.458442,4.55983 -3.563878,5.450071 -0.08288,0.699772 -0.04271,0.87333 0.308755,1.334127 0.222215,0.29134 1.072002,0.949433 1.888416,1.462431 4.015732,2.523308 7.994915,5.61701 11.17603,8.689053 1.527655,1.475275 2.303399,2.106405 2.873075,2.337475 0.98715,0.400406 0.892001,0.403415 1.800453,-0.05693 z"
       id="path1" />
    <path
       style="fill:#ffffff;fill-opacity:1;stroke:#ffffff;stroke-width:0;stroke-linejoin:round;stroke-miterlimit:12.2"
       d="m 86.981465,98.420124 v -3.256841 h 17.396295 17.39629 v 3.256841 3.256836 H 104.37776 86.981465 Z"
       id="path3" />
    <path
       style="fill:#ffffff;fill-opacity:1;stroke:#ffffff;stroke-width:0;stroke-linejoin:round;stroke-miterlimit:12.2"
       d="m 86.981465,79.673433 v -3.09797 h 17.396295 17.39629 v 3.09797 3.09797 H 104.37776 86.981465 Z"
       id="path4" />
  </g>
</svg>
