<?xml version="1.0" encoding="UTF-8" standalone="no"?>
<!DOCTYPE svg PUBLIC "-//W3C//DTD SVG 1.1//EN" "http://www.w3.org/Graphics/SVG/1.1/DTD/svg11.dtd">
<svg xmlns="http://www.w3.org/2000/svg" xmlns:xlink="http://www.w3.org/1999/xlink" viewBox="0.238528693893514 -2.5748229697151 0.381624272149053 0.379602649006625" enable-background="new" shape-rendering="auto">
<defs>
<filter id="T">
  <feBlend mode="normal" in2="BackgroundImage" in="SourceGraphic"/>
</filter>
</defs>
<g>
<title>syugo_meter</title>
<style type="text/css"><![CDATA[.C1{fill:none;stroke:#ff0080;stroke-width:0.000500000000000;stroke-antialiasing:true;stroke-linecap:round;stroke-linejoin:round}]]></style>
<path class="C1" d="M0.2930 -2.5021L0.5664 -2.5030L0.2933 -2.3823L0.5670 -2.2634L0.2936 -2.2625" />
<path class="C1" d="M0.6102 -2.5648L0.2485 -2.5648L0.2485 -2.2052L0.6102 -2.2052L0.6102 -2.5648z" />
<defs>
<g id="L1">
<style type="text/css"><![CDATA[.C2{fill:#ff0080;stroke:none}]]></style>
<path class="C2" d="M0.6202 -2.2052L0.6202 -2.5648L0.6200 -2.5668L0.6194 -2.5686L0.6185 -2.5704L0.6172 -2.5719L0.6157 -2.5731L0.6140 -2.5741L0.6121 -2.5746L0.6102 -2.5748L0.2485 -2.5748L0.2466 -2.5746L0.2447 -2.5741L0.2430 -2.5731L0.2415 -2.5719L0.2402 -2.5704L0.2393 -2.5686L0.2387 -2.5668L0.2385 -2.5648L0.2385 -2.2052L0.2387 -2.2033L0.2393 -2.2014L0.2402 -2.1997L0.2415 -2.1981L0.2430 -2.1969L0.2447 -2.1960L0.2466 -2.1954L0.2485 -2.1952L0.6102 -2.1952L0.6121 -2.1954L0.6140 -2.1960L0.6157 -2.1969L0.6172 -2.1981L0.6185 -2.1997L0.6194 -2.2014L0.6200 -2.2033L0.6202 -2.2052zM0.6002 -2.2152L0.2585 -2.2152L0.2585 -2.5548L0.6002 -2.5548L0.6002 -2.2152z" fill="param(fill)" fill-opacity="param(fill-opacity)" stroke="param(outline)" stroke-opacity="param(outline-opacity)" stroke-width="param(outline-width)"/>
</g>
<g id="L2">
<path class="C2" d="M0.5670 -2.2434L0.5709 -2.2438L0.5746 -2.2450L0.5780 -2.2468L0.5811 -2.2493L0.5835 -2.2523L0.5854 -2.2557L0.5865 -2.2594L0.5870 -2.2633L0.5866 -2.2671L0.5855 -2.2709L0.5837 -2.2743L0.5813 -2.2774L0.5783 -2.2799L0.5749 -2.2818L0.3431 -2.3825L0.5745 -2.4847L0.5779 -2.4866L0.5808 -2.4891L0.5832 -2.4922L0.5850 -2.4957L0.5861 -2.4994L0.5864 -2.5033L0.5859 -2.5071L0.5848 -2.5109L0.5829 -2.5143L0.5804 -2.5173L0.5774 -2.5197L0.5739 -2.5215L0.5702 -2.5226L0.5663 -2.5230L0.2929 -2.5221L0.2890 -2.5217L0.2853 -2.5205L0.2818 -2.5187L0.2788 -2.5162L0.2763 -2.5131L0.2745 -2.5097L0.2734 -2.5059L0.2730 -2.5020L0.2734 -2.4981L0.2746 -2.4944L0.2764 -2.4909L0.2789 -2.4879L0.2820 -2.4854L0.2854 -2.4836L0.2892 -2.4825L0.2931 -2.4821L0.4709 -2.4827L0.2852 -2.4006L0.2819 -2.3987L0.2789 -2.3962L0.2765 -2.3932L0.2747 -2.3898L0.2737 -2.3861L0.2733 -2.3823L0.2737 -2.3784L0.2748 -2.3747L0.2766 -2.3713L0.2790 -2.3683L0.2820 -2.3658L0.2853 -2.3640L0.4714 -2.2831L0.2935 -2.2825L0.2896 -2.2821L0.2859 -2.2810L0.2824 -2.2791L0.2794 -2.2766L0.2769 -2.2736L0.2751 -2.2701L0.2740 -2.2664L0.2736 -2.2625L0.2740 -2.2586L0.2751 -2.2548L0.2770 -2.2514L0.2795 -2.2483L0.2825 -2.2459L0.2860 -2.2440L0.2897 -2.2429L0.2936 -2.2425L0.5670 -2.2434z" fill="param(fill)" fill-opacity="param(fill-opacity)" stroke="param(outline)" stroke-opacity="param(outline-opacity)" stroke-width="param(outline-width)"/>
</g>
</defs>
</g>
<use xlink:href="#L1"/>
<use xlink:href="#L2"/>
</svg>
