<?xml version="1.0" encoding="UTF-8" standalone="no"?>
<!-- Generator: Adobe Illustrator 16.0.0, SVG Export Plug-In . SVG Version: 6.00 Build 0)  -->

<svg
   xmlns:dc="http://purl.org/dc/elements/1.1/"
   xmlns:cc="http://creativecommons.org/ns#"
   xmlns:rdf="http://www.w3.org/1999/02/22-rdf-syntax-ns#"
   xmlns:svg="http://www.w3.org/2000/svg"
   xmlns="http://www.w3.org/2000/svg"
   xmlns:sodipodi="http://sodipodi.sourceforge.net/DTD/sodipodi-0.dtd"
   xmlns:inkscape="http://www.inkscape.org/namespaces/inkscape"
   version="1.1"
   id="svg644"
   x="0px"
   y="0px"
   width="579.997px"
   height="579.997px"
   viewBox="0 0 579.997 579.997"
   enable-background="new 0 0 579.997 579.997"
   xml:space="preserve"
   inkscape:version="0.48.3.1 r9886"
   sodipodi:docname="24_bank.svg"><metadata
   id="metadata2992"><rdf:RDF><cc:Work
       rdf:about=""><dc:format>image/svg+xml</dc:format><dc:type
         rdf:resource="http://purl.org/dc/dcmitype/StillImage" /><dc:title /></cc:Work></rdf:RDF></metadata><defs
   id="defs2990" /><sodipodi:namedview
   pagecolor="#ffffff"
   bordercolor="#666666"
   borderopacity="1"
   objecttolerance="10"
   gridtolerance="10"
   guidetolerance="10"
   inkscape:pageopacity="0"
   inkscape:pageshadow="2"
   inkscape:window-width="1366"
   inkscape:window-height="715"
   id="namedview2988"
   showgrid="false"
   inkscape:zoom="0.34441154"
   inkscape:cx="-18.752602"
   inkscape:cy="193.56275"
   inkscape:window-x="-8"
   inkscape:window-y="-8"
   inkscape:window-maximized="1"
   inkscape:current-layer="svg644" />

<path
   style="font-size:medium;font-style:normal;font-variant:normal;font-weight:normal;font-stretch:normal;text-indent:0;text-align:start;text-decoration:none;line-height:normal;letter-spacing:normal;word-spacing:normal;text-transform:none;direction:ltr;block-progression:tb;writing-mode:lr-tb;text-anchor:start;baseline-shift:baseline;color:#000000;fill:#000000;fill-opacity:1;stroke:none;stroke-width:50;marker:none;visibility:visible;display:inline;overflow:visible;enable-background:accumulate;font-family:Sans;-inkscape-font-specification:Sans"
   d="m 298.84375,19.28125 c -78.41944,0 -149.22777,33.961898 -198.125,87.875 L 84,125.59375 l 18.375,16.8125 c 2.30622,2.10512 4.48001,4.13626 6.5,6.15625 l 0.46875,0.46875 c 2.03976,2.05419 4.06559,4.18104 6.03125,6.34375 l 0.34375,0.40625 c 1.9935,2.20451 3.91644,4.42788 5.78125,6.6875 1.98149,2.40101 3.92378,4.84949 5.8125,7.375 1.91053,2.55467 3.74714,5.10792 5.46875,7.65625 1.70686,2.52648 3.3857,5.17787 5.0625,7.9375 1.64811,2.71242 3.19657,5.44293 4.6875,8.1875 1.52205,2.80184 2.99104,5.59892 4.34375,8.40625 1.35922,2.82084 2.66065,5.71133 3.90625,8.65625 1.22865,2.90486 2.36678,5.86537 3.46875,8.875 1.08723,2.96936 2.10544,5.98547 3.0625,9.0625 0.96905,3.1156 1.86985,6.19347 2.65625,9.25 0.7974,3.09925 1.53304,6.2705 2.1875,9.46875 0.63855,3.12049 1.18467,6.33415 1.6875,9.625 0.50938,3.33373 0.95761,6.56311 1.28125,9.75 0.32755,3.22529 0.57783,6.54114 0.75,9.9375 0.16715,3.29758 0.21875,6.6783 0.21875,10.09375 0,3.41527 -0.0513,6.75832 -0.21875,10.0625 -0.17217,3.39636 -0.42245,6.71219 -0.75,9.9375 -0.32364,3.18689 -0.77187,6.44754 -1.28125,9.78125 -0.50282,3.29085 -1.04895,6.47322 -1.6875,9.59375 -0.65446,3.19825 -1.3901,6.36952 -2.1875,9.46875 -0.7864,3.05652 -1.6872,6.13436 -2.65625,9.25 -0.95706,3.07703 -1.97527,6.12441 -3.0625,9.09375 -1.11727,3.0514 -2.25982,6.01677 -3.46875,8.875 -1.2456,2.94492 -2.54703,5.83541 -3.90625,8.65625 l -0.0312,0.0625 c -1.3201,2.73651 -2.77209,5.5081 -4.3125,8.34375 -1.52074,2.79944 -3.07476,5.53329 -4.6875,8.1875 -1.64141,2.7014 -3.31442,5.31874 -5.0625,7.90625 -1.72164,2.54836 -3.55824,5.13285 -5.46875,7.6875 -1.88873,2.52552 -3.83101,4.97399 -5.8125,7.375 -2.03048,2.46036 -4.06181,4.82374 -6.125,7.09375 l -0.0937,0.0937 c -2.02905,2.22887 -4.17503,4.45628 -6.40625,6.6875 -2.08939,2.08939 -4.26895,4.15101 -6.5,6.1875 L 84,447.90625 100.71875,466.375 c 48.90041,53.91662 119.71209,87.8125 198.125,87.8125 78.4134,0 149.27982,-33.89662 198.1875,-87.8125 L 513.75,447.90625 495.34375,431.09375 c -2.23105,-2.03649 -4.37936,-4.09811 -6.46875,-6.1875 -2.26315,-2.26315 -4.44519,-4.52046 -6.5,-6.78125 -2.06319,-2.27001 -4.09452,-4.63339 -6.125,-7.09375 -2.04621,-2.47943 -4.01818,-4.93393 -5.84375,-7.375 -1.84735,-2.47019 -3.65486,-5.04886 -5.4375,-7.6875 -1.74808,-2.58751 -3.42109,-5.20485 -5.0625,-7.90625 l -0.0312,-0.0312 c -1.60503,-2.64295 -3.14239,-5.36947 -4.65625,-8.15625 -1.55187,-2.85674 -3.01562,-5.64995 -4.34375,-8.40625 -1.35922,-2.82084 -2.66065,-5.71133 -3.90625,-8.65625 -1.20893,-2.85823 -2.38273,-5.8236 -3.5,-8.875 -1.129,-3.08344 -2.17322,-6.13413 -3.09375,-9.09375 -0.93255,-2.99823 -1.77648,-6.07348 -2.59375,-9.25 -0.7974,-3.09923 -1.53304,-6.2705 -2.1875,-9.46875 -0.6635,-3.24248 -1.23475,-6.42608 -1.71875,-9.59375 -0.49056,-3.21054 -0.9138,-6.47072 -1.25,-9.78125 -0.32755,-3.22531 -0.57783,-6.54114 -0.75,-9.9375 -0.17372,-3.42718 -0.25,-6.76934 -0.25,-10.0625 0,-3.29316 0.0766,-6.67282 0.25,-10.09375 0.17217,-3.39636 0.42245,-6.71221 0.75,-9.9375 0.3362,-3.31053 0.75944,-6.53945 1.25,-9.75 0.48401,-3.16768 1.05525,-6.38256 1.71875,-9.625 0.65446,-3.19825 1.3901,-6.3695 2.1875,-9.46875 0.81728,-3.17653 1.66121,-6.25181 2.59375,-9.25 0.92053,-2.95963 1.96474,-5.97904 3.09375,-9.0625 1.10197,-3.00963 2.27135,-5.97014 3.5,-8.875 1.2456,-2.94492 2.54703,-5.83541 3.90625,-8.65625 1.35271,-2.80733 2.8217,-5.60441 4.34375,-8.40625 1.49093,-2.74457 3.03939,-5.47508 4.6875,-8.1875 1.6768,-2.75963 3.35564,-5.41102 5.0625,-7.9375 1.78261,-2.63861 3.59014,-5.18604 5.4375,-7.65625 1.82556,-2.44105 3.79754,-4.89557 5.84375,-7.375 1.97707,-2.39564 4.00213,-4.75808 6.125,-7.09375 2.11449,-2.32645 4.30282,-4.61532 6.5,-6.8125 2.01999,-2.01999 4.16253,-4.05113 6.46875,-6.15625 L 513.75005,125.5938 497.0313,107.1563 C 448.12587,53.234741 377.26199,19.2813 298.8438,19.2813 z m 0,50 c 55.5575,0 106.0122,20.774378 144.40625,54.9375 -1.87224,2.1128 -3.74548,4.20454 -5.5625,6.40625 -2.44547,2.96323 -4.9072,6.03373 -7.3125,9.25 -2.3835,3.18711 -4.66556,6.40085 -6.84375,9.625 -2.25394,3.33626 -4.33903,6.70067 -6.34375,10 -2.03341,3.34654 -4.0042,6.74865 -5.90625,10.25 -1.87093,3.44408 -3.69497,6.97742 -5.4375,10.59375 -1.73602,3.60282 -3.39484,7.22774 -4.9375,10.875 -1.55959,3.6873 -3.00495,7.38321 -4.375,11.125 -1.34303,3.66798 -2.64897,7.49567 -3.875,11.4375 -1.21404,3.90327 -2.3179,7.7905 -3.3125,11.65625 -1.0145,3.94303 -1.90523,7.89941 -2.71875,11.875 -0.80448,3.9314 -1.55669,7.96525 -2.1875,12.09375 -0.62428,4.08565 -1.14626,8.18248 -1.5625,12.28125 -0.42491,4.18401 -0.72881,8.32068 -0.9375,12.4375 -0.20743,4.09225 -0.3125,8.31034 -0.3125,12.625 0,4.31466 0.10538,8.50775 0.3125,12.59375 0.20869,4.11682 0.51259,8.28474 0.9375,12.46875 0.41624,4.09877 0.93822,8.16436 1.5625,12.25 0.63082,4.12853 1.38302,8.16237 2.1875,12.09375 0.81352,3.97561 1.70425,7.93197 2.71875,11.875 0.99461,3.86576 2.09847,7.78425 3.3125,11.6875 1.22603,3.94186 2.53196,7.73827 3.875,11.40625 1.35475,3.70002 2.79569,7.42232 4.375,11.15625 1.54266,3.64726 3.20148,7.27218 4.9375,10.875 1.76711,3.66736 3.59639,7.17332 5.4375,10.5625 1.87224,3.4465 3.83747,6.8765 5.90625,10.28125 2.04011,3.35756 4.13103,6.6935 6.34375,9.96875 2.17816,3.2241 4.46024,6.43787 6.84375,9.625 2.40529,3.21623 4.86703,6.28677 7.3125,9.25 1.7798,2.15661 3.67099,4.29409 5.5625,6.4375 -38.39239,34.1537 -88.84459,54.90625 -144.40625,54.90625 -55.56209,0 -105.9588,-20.75129 -144.34375,-54.90625 1.89151,-2.14341 3.7827,-4.28089 5.5625,-6.4375 2.51019,-3.04165 4.93912,-6.11822 7.28125,-9.25 2.32035,-3.10267 4.60459,-6.31062 6.84375,-9.625 2.21272,-3.27525 4.33489,-6.61119 6.375,-9.96875 2.06878,-3.40475 4.03401,-6.83475 5.90625,-10.28125 1.84111,-3.38918 3.67039,-6.89514 5.4375,-10.5625 1.73602,-3.60282 3.39484,-7.22774 4.9375,-10.875 1.57931,-3.73393 3.02025,-7.45623 4.375,-11.15625 1.38481,-3.78208 2.65423,-7.5818 3.84375,-11.40625 1.17751,-3.78584 2.31827,-7.70174 3.34375,-11.6875 1.0145,-3.94303 1.90523,-7.89939 2.71875,-11.875 l 0.0625,-0.25 c 0.80698,-3.96768 1.49456,-7.92222 2.09375,-11.84375 0.60546,-3.96247 1.16495,-8.02759 1.59375,-12.25 0.42491,-4.18401 0.69756,-8.35193 0.90625,-12.46875 0.21331,-4.209 0.3125,-8.4012 0.3125,-12.59375 0,-4.19237 -0.0988,-8.4094 -0.3125,-12.625 -0.20869,-4.11682 -0.48134,-8.25349 -0.90625,-12.4375 -0.4288,-4.22241 -0.98829,-8.31878 -1.59375,-12.28125 -0.61199,-4.00533 -1.32682,-8.0404 -2.15625,-12.09375 -0.81352,-3.97559 -1.70425,-7.93197 -2.71875,-11.875 -1.02548,-3.98575 -2.16624,-7.87039 -3.34375,-11.65625 -1.18952,-3.82443 -2.45894,-7.65542 -3.84375,-11.4375 -1.37005,-3.74179 -2.81541,-7.4377 -4.375,-11.125 -1.54266,-3.64726 -3.20148,-7.27218 -4.9375,-10.875 -1.74253,-3.61633 -3.56657,-7.14967 -5.4375,-10.59375 L 186.25,169.34375 c -1.83296,-3.35803 -3.73337,-6.62768 -5.6875,-9.84375 l -0.0312,-0.0625 c -1.99423,-3.28042 -4.10302,-6.62079 -6.34375,-9.9375 -2.23919,-3.31443 -4.52342,-6.52235 -6.84375,-9.625 -2.34214,-3.13181 -4.77106,-6.20835 -7.28125,-9.25 -1.81702,-2.20171 -3.69026,-4.29345 -5.5625,-6.40625 38.3876,-34.162111 88.78733,-54.9375 144.34375,-54.9375 z"
   id="path3054"
   inkscape:connector-curvature="0" /></svg>