<?xml version="1.0" encoding="UTF-8" standalone="no"?>
<!-- Generator: Adobe Illustrator 16.0.0, SVG Export Plug-In . SVG Version: 6.00 Build 0)  -->

<svg
   xmlns:dc="http://purl.org/dc/elements/1.1/"
   xmlns:cc="http://creativecommons.org/ns#"
   xmlns:rdf="http://www.w3.org/1999/02/22-rdf-syntax-ns#"
   xmlns:svg="http://www.w3.org/2000/svg"
   xmlns="http://www.w3.org/2000/svg"
   xmlns:sodipodi="http://sodipodi.sourceforge.net/DTD/sodipodi-0.dtd"
   xmlns:inkscape="http://www.inkscape.org/namespaces/inkscape"
   version="1.1"
   id="svg644"
   x="0px"
   y="0px"
   width="579.997px"
   height="579.997px"
   viewBox="0 0 579.997 579.997"
   enable-background="new 0 0 579.997 579.997"
   xml:space="preserve"
   inkscape:version="0.48.3.1 r9886"
   sodipodi:docname="05_police_station.svg"><metadata
   id="metadata2992"><rdf:RDF><cc:Work
       rdf:about=""><dc:format>image/svg+xml</dc:format><dc:type
         rdf:resource="http://purl.org/dc/dcmitype/StillImage" /><dc:title /></cc:Work></rdf:RDF></metadata><defs
   id="defs2990" /><sodipodi:namedview
   pagecolor="#ffffff"
   bordercolor="#666666"
   borderopacity="1"
   objecttolerance="10"
   gridtolerance="10"
   guidetolerance="10"
   inkscape:pageopacity="0"
   inkscape:pageshadow="2"
   inkscape:window-width="1366"
   inkscape:window-height="715"
   id="namedview2988"
   showgrid="false"
   inkscape:zoom="0.34441154"
   inkscape:cx="90.017705"
   inkscape:cy="144.2032"
   inkscape:window-x="-8"
   inkscape:window-y="-8"
   inkscape:window-maximized="1"
   inkscape:current-layer="svg644" />
<path
   fill="param(fill) #000"
   stroke="param(outline) #FFF"
   stroke-width="param(outline-width) 0"
   d="m 291.999,32.287386 c -142.10169,0 -257.708655,115.609884 -257.708655,257.711574 0,142.10169 115.606965,257.70865 257.708655,257.70865 142.10169,0 257.70865,-115.60696 257.70865,-257.70865 0,-142.10169 -115.60696,-257.711574 -257.70865,-257.711574 z"
   id="path2986"
   inkscape:connector-curvature="0" />
<path
   stroke="param(outline) #FFF"
   stroke-width="param(outline-width) 0"
   d="m 291.99901,68.216285 c -122.29046,0 -221.779975,99.492025 -221.779975,221.782475 0,122.29044 99.489515,221.77995 221.779975,221.77995 122.29042,0 221.77995,-99.48951 221.77995,-221.77995 0,-122.29045 -99.48951,-221.782475 -221.77995,-221.782475 z"
   id="path2986-1"
   inkscape:connector-curvature="0"
   style="fill:#ffffff" /><rect
   style="fill:#000000;fill-opacity:1;stroke:none"
   id="rect2993"
   width="473.27103"
   height="52.263054"
   x="-233.16714"
   y="387.45523"
   transform="matrix(0.70710678,-0.70710678,0.70710678,0.70710678,0,0)" /><rect
   style="fill:#000000;fill-opacity:1;stroke:none"
   id="rect2993-7"
   width="484.88504"
   height="52.263054"
   x="171.14424"
   y="-26.696379"
   transform="matrix(0.70710678,0.70710678,-0.70710678,0.70710678,0,0)" /></svg>