<?xml version="1.0" encoding="UTF-8" standalone="no"?>
<!-- Generator: Adobe Illustrator 16.0.0, SVG Export Plug-In . SVG Version: 6.00 Build 0)  -->

<svg
   xmlns:dc="http://purl.org/dc/elements/1.1/"
   xmlns:cc="http://creativecommons.org/ns#"
   xmlns:rdf="http://www.w3.org/1999/02/22-rdf-syntax-ns#"
   xmlns:svg="http://www.w3.org/2000/svg"
   xmlns="http://www.w3.org/2000/svg"
   xmlns:sodipodi="http://sodipodi.sourceforge.net/DTD/sodipodi-0.dtd"
   xmlns:inkscape="http://www.inkscape.org/namespaces/inkscape"
   version="1.1"
   id="svg644"
   x="0px"
   y="0px"
   width="579.997px"
   height="579.997px"
   viewBox="0 0 579.997 579.997"
   enable-background="new 0 0 579.997 579.997"
   xml:space="preserve"
   inkscape:version="0.48.3.1 r9886"
   sodipodi:docname="16_factory.svg"><metadata
   id="metadata2992"><rdf:RDF><cc:Work
       rdf:about=""><dc:format>image/svg+xml</dc:format><dc:type
         rdf:resource="http://purl.org/dc/dcmitype/StillImage" /><dc:title /></cc:Work></rdf:RDF></metadata><defs
   id="defs2990" /><sodipodi:namedview
   pagecolor="#ffffff"
   bordercolor="#666666"
   borderopacity="1"
   objecttolerance="10"
   gridtolerance="10"
   guidetolerance="10"
   inkscape:pageopacity="0"
   inkscape:pageshadow="2"
   inkscape:window-width="1366"
   inkscape:window-height="715"
   id="namedview2988"
   showgrid="false"
   inkscape:zoom="0.34441154"
   inkscape:cx="-403.19905"
   inkscape:cy="144.2032"
   inkscape:window-x="-8"
   inkscape:window-y="-8"
   inkscape:window-maximized="1"
   inkscape:current-layer="svg644" />

<rect
   style="fill:#000000;fill-opacity:1;stroke:none"
   id="rect2983-7-0-1"
   width="534.24457"
   height="63.877071"
   x="-555.08655"
   y="-323.33075"
   transform="scale(-1,-1)" /><rect
   style="fill:#000000;fill-opacity:1;stroke:none"
   id="rect2983-7-0-1-4"
   width="534.24457"
   height="63.877071"
   x="-558.51453"
   y="256.02573"
   transform="matrix(0,-1,1,0,0,0)" /><rect
   style="fill:#000000;fill-opacity:1;stroke:none"
   id="rect2983-7-0-1-8"
   width="534.24457"
   height="63.877071"
   x="-264.69836"
   y="-441.60544"
   transform="matrix(-0.70710678,0.70710678,-0.70710678,-0.70710678,0,0)" /><rect
   style="fill:#000000;fill-opacity:1;stroke:none"
   id="rect2983-7-0-1-4-2"
   width="534.24457"
   height="63.877071"
   x="-676.78931"
   y="-34.36245"
   transform="matrix(-0.70710678,-0.70710678,0.70710678,-0.70710678,0,0)" /><path
   sodipodi:type="arc"
   style="fill:#000000;fill-opacity:1;stroke:none"
   id="path3110"
   sodipodi:cx="-525.53406"
   sodipodi:cy="321.58524"
   sodipodi:rx="165.49968"
   sodipodi:ry="165.49968"
   d="m -360.03438,321.58524 a 165.49968,165.49968 0 1 1 -330.99936,0 165.49968,165.49968 0 1 1 330.99936,0 z"
   transform="matrix(1.1140351,0,0,1.1140351,873.42766,-66.865011)" /><path
   sodipodi:type="arc"
   style="fill:#ffffff;fill-opacity:1;stroke:none"
   id="path3110-4"
   sodipodi:cx="-525.53406"
   sodipodi:cy="321.58524"
   sodipodi:rx="165.49968"
   sodipodi:ry="165.49968"
   d="m -360.03438,321.58524 a 165.49968,165.49968 0 1 1 -330.99936,0 165.49968,165.49968 0 1 1 330.99936,0 z"
   transform="matrix(0.74561405,0,0,0.74561405,679.80985,51.613759)" /></svg>